<?xml version="1.0" standalone="no"?>
<!DOCTYPE svg PUBLIC "-//W3C//DTD SVG 1.1//EN" "http://www.w3.org/Graphics/SVG/1.1/DTD/svg11.dtd" >
<svg xmlns="http://www.w3.org/2000/svg">
<metadata></metadata>
<defs>
<font id="tvsaregular" horiz-adv-x="1746" >
<font-face units-per-em="2048" ascent="1755" descent="-293" />
<missing-glyph horiz-adv-x="685" />
<glyph horiz-adv-x="2048" />
<glyph horiz-adv-x="2048" />
<glyph unicode="&#xd;" horiz-adv-x="2048" />
<glyph unicode=" "  horiz-adv-x="685" />
<glyph unicode="&#x09;" horiz-adv-x="685" />
<glyph unicode="&#xa0;" horiz-adv-x="685" />
<glyph unicode="!" horiz-adv-x="677" d="M512 152l-483 472q-29 29 -29 67q0 40 29 67l483 473q29 27 69 27q39 0 68 -27q29 -29 29 -67.5t-29 -66.5l-415 -406l415 -405q29 -28 29 -67t-29 -67q-28 -26 -68.5 -26t-68.5 26z" />
<glyph unicode="&#x22;" horiz-adv-x="1402" d="M789 874v401q0 53 39 90.5t94 37.5q49 0 86.5 -30.5t45.5 -76.5l122 115h-1q40 38 95 38q53 0 93 -38q39 -36 39 -90q0 -51 -39 -89l-115 -110q42 -11 69 -44.5t27 -75.5q0 -54 -38.5 -91t-94.5 -37h-422zM615 701v-403q0 -52 -39.5 -89.5t-94.5 -37.5q-50 0 -87 30.5 t-44 76.5l-123 -116q-37 -36 -94 -36q-58 0 -94 36q-39 38 -39 91q0 51 39 89l115 109q-42 11 -69.5 45.5t-27.5 76.5q0 53 39 90.5t95 37.5h424z" />
<glyph unicode="#" horiz-adv-x="1893" d="M504 131v4q-213 23 -358.5 183t-145.5 376q0 153 75.5 282.5t205 204.5t282.5 75q125 0 236.5 -52.5t190.5 -144.5q-13 62 -13 117q0 214 144.5 371t355.5 176q-86 -77 -134.5 -183t-48.5 -226q0 -150 73.5 -276t199.5 -199.5t275 -73.5q18 0 52 2q-150 -133 -350 -140 q9 -41 9 -85q0 -159 -106 -275t-262 -133v-3h-681zM1137 234h6q128 0 217 91q90 90 90 217v20q-7 122 -96 207.5t-213 85.5q-69 0 -134 -31l-17 42q-53 128 -169 208t-258 80q-190 0 -325 -135t-135 -325q0 -188 133 -323t321 -137h525v4z" />
<glyph unicode="$" horiz-adv-x="1132" d="M26 758l473 483q27 29 67 29q38 0 67 -29l472 -483q28 -28 28 -69q0 -40 -28 -68q-28 -29 -67 -29t-67 29l-405 416l-406 -416q-28 -29 -67 -29t-67 29q-26 28 -26 68.5t26 68.5zM26 186l473 484q26 28 67 28q39 0 67 -28l472 -484q28 -28 28 -68q0 -41 -28 -69 q-28 -29 -67 -29t-67 29l-405 416l-406 -416q-28 -29 -67 -29t-67 29q-26 28 -26 68.5t26 68.5z" />
<glyph unicode="%" horiz-adv-x="1132" d="M1106 1095l-472 -484q-28 -28 -67 -28q-40 0 -66 28l-474 484q-27 29 -27 68q0 40 27 69q28 28 67 28t67 -28l406 -415l406 415q28 28 66.5 28t66.5 -28q26 -28 26 -68.5t-26 -68.5zM1106 523l-472 -483q-29 -29 -67 -29q-39 0 -66 29l-474 483q-27 29 -27 69t27 69 q28 29 67 29t67 -29l406 -415l406 415q28 29 66.5 29t66.5 -29q26 -28 26 -69t-26 -69z" />
<glyph unicode="&#x26;" horiz-adv-x="2194" d="M1008 914l-353 79q85 214 280 322q114 63 243.5 75t247 -24t221.5 -118t169 -199t79.5 -248.5t-18 -250.5t-111 -222t-192.5 -166q-164 -88 -339.5 -78t-324.5 109q-16 11 -29 11t-18 -6l-5 -5l-188 -146q-3 -2 -7 -6t-4.5 -15t12.5 -21q222 -184 504.5 -215.5 t543.5 108.5q166 92 280.5 243t161.5 324t26 364t-116 362t-245.5 290t-322 171t-359.5 34.5t-354 -109.5q-155 -86 -264.5 -220.5t-163.5 -297.5l-324 74q-3 1 -7 2t-13 0.5t-14 -4t-4 -15t11 -30.5q15 -27 176.5 -319.5t180.5 -327.5q24 -43 35 -45t51 32q27 22 148.5 115 t257.5 197.5t154 118.5q31 26 29.5 38.5t-18.5 15.5z" />
<glyph unicode="'" horiz-adv-x="1590" d="M1591 1513v-340q0 -44 -32 -76t-76 -32q-41 0 -70.5 25.5t-35.5 64.5l-98 -98q-31 -31 -76 -31t-76 31q-33 34 -31 77q-2 42 31 76l94 93q-35 10 -57 38.5t-22 64.5q0 44 31 75.5t77 31.5h341zM1353 838l13 11q4 -2 13 -7v-489q0 -88 -61 -149t-149 -61h-950 q-88 0 -149 61t-61 149v844q0 88 61 149.5t149 61.5h682l-1 -1l-1 -1q0 -56 30 -108l-14 -13q-61 -62 -61 -151q-2 -2 0 -12q0 -11 4 -31h-639v-738h950v425q33 -3 34 -3q85 0 150 63z" />
<glyph unicode="(" horiz-adv-x="1214" d="M166 1152l483 -472q29 -29 29 -67t-29 -67l-483 -472q-28 -28 -69 -28q-40 0 -68 28q-29 28 -29 67t29 67l414 405l-414 405q-29 28 -29 67t29 67q28 28 68.5 28t68.5 -28zM703 1152l483 -472q29 -29 29 -67t-29 -67l-483 -472q-28 -28 -69 -28q-40 0 -68 28t-28 67 t28 67l415 405l-415 405q-28 28 -28 67t28 67t68.5 28t68.5 -28z" />
<glyph unicode=")" horiz-adv-x="1216" d="M513 138l-484 473q-29 27 -29 67q0 38 29 67l484 472q28 28 69 28q39 0 67 -28q29 -28 29 -67t-29 -67l-415 -405l415 -406q29 -28 29 -67t-29 -67q-28 -26 -68 -26t-68 26zM1050 138l-484 473q-29 27 -29 67q0 38 29 67l484 472q28 28 69 28q39 0 67 -28q29 -28 29 -67 t-29 -67l-415 -405l415 -406q29 -28 29 -67t-29 -67q-28 -26 -68 -26t-68 26z" />
<glyph unicode="*" horiz-adv-x="1755" d="M718 78l61 241q23 -45 84 -77.5t130 -32.5q139 0 247.5 78.5t167.5 215.5t59 308q0 77 -25 151.5t-74 137.5t-115.5 111t-155 75.5t-186.5 27.5q-120 0 -224 -33t-176.5 -88t-124.5 -126.5t-76.5 -148t-24.5 -152.5q0 -119 45.5 -209.5t133.5 -126.5q14 -6 26.5 0 t16.5 23q3 8 10 35t9 34q4 18 1.5 26t-14.5 23q-58 70 -58 173q0 112 51.5 207t151.5 154.5t229 59.5q172 0 269 -94.5t97 -243.5q0 -127 -34.5 -232.5t-99 -169.5t-145.5 -64q-70 0 -112.5 50t-26.5 119q9 40 30.5 107t34.5 118t13 86q0 57 -31 95t-88 38q-71 0 -120 -65.5 t-49 -162.5q0 -83 29 -139l-113 -478q-19 -78 -15 -202q-236 104 -381 321t-145 483q0 179 69.5 341.5t187 280t280 187t341.5 69.5t341.5 -69.5t279.5 -187t186.5 -280t69.5 -341.5t-69.5 -341.5t-186.5 -279.5t-279.5 -186.5t-341.5 -69.5q-129 0 -249 36q68 109 89 188z " />
<glyph unicode="+" horiz-adv-x="2028" d="M1826 1443v-202h203v-102h-203v-202h203v-102h-203v-203h203v-101h-203v-101h-103v101h-202v-101h-102v101h-202v-101q0 -164 -81 -303t-218 -221q136 -11 217.5 -29.5t81.5 -39.5q0 -23 -80 -50t-225 -47t-303 -20q-159 0 -304.5 20t-225 46.5t-79.5 50.5q0 21 81 39.5 t217 29.5q-136 82 -217 221t-81 303q0 166 81.5 306t221.5 221.5t306 81.5v304q0 168 118.5 287t286.5 119h1015v-306h-203zM1117 1443h-205v-202h205v202zM1419 1443h-202v-202h202v202zM1723 1443h-202v-202h202v202zM1117 1139h-205v-184q5 -3 15.5 -9t16.5 -9h173v202z M1419 1139h-202v-202h202v202zM1723 1139h-202v-202h202v202zM811 125h200q100 132 103 292l-202 114l19 101l31 159q-8 7 -50 40q-72 53 -138 75l-164 -172l-1 1l-166 171q-129 -45 -211 -138l49 -250l-178 -102q4 -163 103 -291h200l95 -190q57 -13 108 -13q49 0 106 13z M1117 835h-56q23 -24 56 -68v68zM1419 835h-202v-203h202v203zM1723 835h-202v-203h202v203zM811 493l-25 -63l-76 -184h-203l-101 236l203 150z" />
<glyph unicode="," horiz-adv-x="1132" d="M1106 755l-472 -484q-28 -28 -67 -28q-40 0 -66 28l-474 484q-27 29 -27 69t27 69q28 29 67 29t67 -29l406 -416l406 416q28 29 66.5 29t66.5 -29q26 -28 26 -69t-26 -69z" />
<glyph unicode="-" d="M1015 1546v-119q151 -26 283 -103t227 -188.5t150 -256.5t55 -302q0 -176 -68.5 -335.5t-184.5 -275t-276.5 -184t-336.5 -68.5t-336 68.5t-275.5 184t-184 275t-68.5 335.5q0 157 54.5 302t149.5 256.5t227 188.5t282 103v119h-103q-43 0 -71.5 29.5t-28.5 72.5 q0 42 29 71.5t71 29.5h510q42 0 70.5 -29.5t28.5 -71.5q0 -43 -28.5 -72.5t-70.5 -29.5h-105zM1527 1241l-104 102q-17 13 -18 46.5t18 53.5q21 17 53.5 16t50.5 -16l99 -100l104 -102q14 -19 15.5 -49.5t-15.5 -52.5q-20 -19 -54.5 -18t-49.5 18zM864 -80q179 0 331.5 87.5 t242 239t89.5 330.5q0 180 -89.5 333t-242 242t-331.5 89q-135 0 -257.5 -52.5t-211 -141.5t-141 -212t-52.5 -258q0 -179 88.5 -330.5t241 -239t332.5 -87.5zM456 527h408q20 0 35.5 15t15.5 35t-15.5 36t-35.5 16h-408q-21 0 -35.5 -15.5t-14.5 -36.5t14.5 -35.5 t35.5 -14.5z" />
<glyph unicode="." horiz-adv-x="1292" d="M352 874l-106 107q-11 -39 -44 -64.5t-74 -25.5q-52 0 -87.5 36t-35.5 88v390h389q52 0 88 -36t36 -88q0 -46 -30 -80t-74 -41l112 -112q36 -36 36 -87t-36 -87t-87 -36t-87 36zM1293 1400v-390q0 -51 -36 -87t-87 -36q-46 0 -80 30t-41 74l-112 -112q-37 -37 -87 -37 q-52 0 -87 37q-36 36 -36 87q0 52 36 87l107 106q-39 11 -64 44t-25 74q0 51 35.5 87t86.5 36h390zM942 641l106 -106q11 39 44 64t74 25q50 0 86 -36t36 -86v-390h-390q-50 0 -86 36t-36 86q0 46 29.5 80t74.5 41l-110 109l-2 3q-37 36 -37 87q0 49 36 87q37 37 87 37 q51 0 88 -37zM530 638v-1q36 -36 36 -87t-36 -87l-106 -106q39 -11 64 -44t25 -74q0 -51 -35.5 -86.5t-87.5 -35.5h-390v389q0 51 36 87t87 36q46 0 80.5 -29.5t41.5 -74.5l112 113v-1q35 36 86 36q52 0 87 -35z" />
<glyph unicode="/" horiz-adv-x="2245" d="M158 729l-147 177q-3 2 -7 6t-2 17t20 26q77 54 1040 779q37 26 74 0q1074 -765 1089 -775q18 -13 20 -27.5t-5 -22.5l-8 -8l-151 -181q-1 -1 -3 -3.5t-8 -7t-12 -6.5t-15.5 -0.5t-19.5 8.5q-16 13 -199 149t-403.5 300.5t-285.5 212.5q-37 26 -72 0l-855 -655 q-16 -10 -27 -7.5t-17 10.5zM1873 619v-860q1 -5 0.5 -12.5t-10 -19.5t-29.5 -12h-434q-24 0 -35 11t-11 22l1 11v673h-514v-673q1 -5 0.5 -12.5t-11 -19.5t-31.5 -12h-436q-21 0 -31 11t-10 22l1 11v863q1 3 -0.5 16t8.5 36t30 36q31 21 310.5 234.5t398.5 305.5 q28 22 57 0q664 -509 708 -540q19 -14 28.5 -36.5t9.5 -38.5v-16z" />
<glyph unicode="0" horiz-adv-x="1113" d="M1113 1366v-1272q0 -65 -38 -82.5t-91 21.5l-411 309q-26 19 -62 46t-51 38t-15 9q-8 -2 -21.5 -0.5t-57 4.5t-80.5 3h-127q-70 0 -114.5 32.5t-44.5 95.5v350q0 65 46.5 112t112.5 47h127q67 0 113 -7t46 -17q0 -16 78 37q24 16 50 35l411 304q53 38 91 19.5t38 -84.5z " />
<glyph unicode="1" horiz-adv-x="1620" d="M1135 1394v-1296q0 -66 -38.5 -83.5t-91.5 22.5l-421 314q-18 13 -40.5 30t-36.5 28t-27.5 21t-19.5 13.5t-6 2.5q-8 -2 -22.5 0t-58.5 5t-82 3h-129q-71 0 -116.5 33t-45.5 97v357q0 66 47.5 113.5t114.5 47.5h129q68 0 115.5 -7t47.5 -17q0 -16 75 34l55 39l421 310 q53 40 91.5 20t38.5 -87zM1504 530l-119 116q73 51 73 132t-73 132l119 115q54 -45 85.5 -109.5t31.5 -137.5q0 -74 -31 -138.5t-86 -109.5z" />
<glyph unicode="2" horiz-adv-x="2106" d="M1134 1390v-1296q0 -66 -38.5 -84t-92.5 22l-419 314q-26 19 -63 47t-52 39t-15 9q-8 -2 -22.5 0t-58.5 5t-82 3h-130q-71 0 -116 33t-45 97v357q0 66 47 113.5t114 47.5h130q68 0 115.5 -7t47.5 -17q0 -17 93 47q18 12 37 26l419 310q54 40 92.5 20.5t38.5 -86.5z M1851 186l-115 113q98 92 153 214t55 261q0 137 -55 259.5t-153 213.5l115 114q120 -114 187.5 -265.5t67.5 -321.5q0 -171 -67.5 -323.5t-187.5 -264.5zM1503 526l-118 115q73 51 73 133q0 80 -73 131l118 116q55 -45 86.5 -109.5t31.5 -137.5t-31.5 -138t-86.5 -110z" />
<glyph unicode="3" horiz-adv-x="2593" d="M2201 -175l-116 114q164 158 255.5 368.5t91.5 446.5q0 235 -91.5 446t-255.5 368l116 114q184 -180 288 -420.5t104 -507.5q0 -269 -103.5 -509t-288.5 -420zM1135 1370v-1296q0 -67 -38 -84.5t-92 23.5l-421 314q-18 13 -40.5 30t-36.5 28t-27.5 21t-19.5 13.5t-6 2.5 q-8 -2 -22 0t-57.5 5t-81.5 3h-131q-71 0 -116.5 33t-45.5 97v355q0 67 47.5 115t114.5 48h131q68 0 114.5 -7t46.5 -17q0 -16 75 34l55 39l421 310q54 40 92 20t38 -87zM1853 167l-117 113q98 91 153.5 213t55.5 261q0 137 -55.5 260t-153.5 213l117 115q120 -114 187 -266 t67 -322q0 -171 -67 -323t-187 -264zM1504 506l-118 116q73 52 73 132t-73 132l118 115q54 -45 85.5 -109.5t31.5 -137.5q0 -74 -31 -138.5t-86 -109.5z" />
<glyph unicode="4" horiz-adv-x="1308" d="M821 1203l347 203q58 34 99.5 10t41.5 -91v-1141q0 -67 -41.5 -91t-99.5 10l-347 202q-43 26 -147.5 86.5t-134.5 78.5l-225 131v-394q0 -34 -24 -57.5t-58 -23.5h-151q-34 0 -57.5 23.5t-23.5 57.5v1095q0 34 23.5 57.5t57.5 23.5h151q34 0 58 -23.5t24 -57.5v-395 l225 132q218 126 282 164z" />
<glyph unicode="5" horiz-adv-x="2003" d="M1555 1231l339 208q60 32 84.5 10.5t24.5 -94.5v-1174q0 -71 -27.5 -93.5t-87.5 10.5l-327 208q-38 22 -149.5 83.5t-152.5 85.5l-94 42v-336q0 -70 -31.5 -93t-90.5 10l-333 208l-649 377q-60 35 -61 85t59 85l355 209q45 26 149.5 88.5t134.5 80.5l345 208 q60 34 91 10.5t31 -94.5v-334l85 41q36 21 149 82.5t156 86.5z" />
<glyph unicode="6" horiz-adv-x="1166" d="M438 233v1021q0 61 -43 103.5t-104 42.5h-145q-61 0 -103.5 -42.5t-42.5 -103.5v-1021q0 -60 42.5 -102.5t103.5 -42.5h145q61 0 104 42.5t43 102.5zM1167 233v1021q0 61 -42.5 103.5t-103.5 42.5h-146q-61 0 -103.5 -42.5t-42.5 -103.5v-1021q0 -60 42.5 -102.5 t103.5 -42.5h146q61 0 103.5 42.5t42.5 102.5z" />
<glyph unicode="7" horiz-adv-x="1229" d="M526 1213l645 -376q59 -35 58.5 -84t-59.5 -84l-357 -210q-35 -20 -142.5 -80.5t-150.5 -85.5l-362 -210q-59 -35 -108.5 -9.5t-49.5 93.5v1170q0 68 49.5 94t108.5 -10z" />
<glyph unicode="8" horiz-adv-x="1997" d="M1317 1200l624 -363q58 -34 57 -81.5t-59 -82.5l-346 -201q-38 -22 -140.5 -81t-141.5 -81l-351 -201q-58 -34 -104.5 -10t-46.5 90v324l-57 -41q-38 -23 -133 -81.5t-134 -80.5l-346 -201q-58 -34 -98.5 -10.5t-40.5 90.5v1132q0 67 39.5 90.5t97.5 -10.5l342 -201 q39 -23 137 -81t136 -81l57 -40v323q0 66 46.5 90.5t104.5 -10.5z" />
<glyph unicode="9" horiz-adv-x="1305" d="M1072 1379h151q33 0 57.5 -25.5t24.5 -59.5v-1137q0 -34 -24 -58.5t-58 -24.5h-151q-35 0 -64.5 25t-29.5 58v436l-219 -132q-39 -23 -138 -82.5t-138 -81.5l-345 -203q-58 -33 -98 -9.5t-40 90.5v1142q0 67 39 91t97 -10l343 -203q178 -105 279 -164l220 -133v396 q0 33 29.5 59t64.5 26z" />
<glyph unicode=":" horiz-adv-x="1132" d="M26 462l473 484q27 29 67 29q38 0 67 -29l472 -484q28 -28 28 -68t-28 -68t-67 -28t-67 28l-405 415l-406 -415q-28 -28 -67 -28t-67 28q-26 28 -26 69t26 67z" />
<glyph unicode=";" horiz-adv-x="2458" d="M2334 1533l-1096 -967l-1092 967h2188zM792 747l-781 -654q-11 10 -11 65v1215q0 44 11 65zM2458 1373v-1215q0 -22 -0.5 -31t-5.5 -25.5t-15 -32.5l-749 668l749 701q15 -15 18 -26t3 -39zM146 0l760 646l332 -284l314 284l746 -646h-2152z" />
<glyph unicode="?" horiz-adv-x="1601" d="M1517 434h-1450q-28 0 -47 19.5t-19 47.5v122q0 29 19.5 52t46.5 23h618l-107 177q-19 32 -66 112.5t-66 111.5l-165 279q-28 47 -8.5 79.5t74.5 32.5h924q55 0 74 -32t-8 -79l-164 -276l-133 -226l-107 -179h584q27 0 48 -23.5t21 -51.5v-122q0 -28 -20.5 -47.5 t-48.5 -19.5zM67 297h1468q28 0 47 -19t19 -47v-135q0 -28 -19 -47t-47 -19h-1468q-28 0 -47.5 19t-19.5 47v135q0 28 19.5 47t47.5 19z" />
<glyph unicode="@" horiz-adv-x="2088" d="M1555 825l12 -8q4 -3 23 -11q153 -108 218 -289q15 3 34 3q87 0 156.5 -56.5t86.5 -144.5q18 -100 -39.5 -184.5t-158.5 -102.5q-21 -7 -46 -7q-33 0 -81 16q-13 -31 -19 -39q-89 -130 -228 -196.5t-292 -55.5t-283 100t-196 227.5t-55 291.5t99 284q26 36 64 74 l-850 956l231 44l1152 -786v-37q0 -34 24 -58t58 -24h82q1 0 4 1.5t4 1.5zM1309 83q101 19 158.5 104.5t38.5 185.5q-19 101 -104 159.5t-183 36.5q-102 -18 -159.5 -102.5t-37.5 -185.5q18 -100 103 -158t184 -40zM1957 195q34 49 25 104q-12 50 -51.5 83t-88.5 33h-9 q22 -139 -25 -278q30 -6 33 -6q5 0 14.5 2t11.5 2q59 12 90 60z" />
<glyph unicode="A" horiz-adv-x="3006" d="M2022 1823h-1039q250 74 520 74q269 0 519 -74zM2270 947q0 156 -60.5 298t-162 244.5t-242.5 163t-295 60.5q-155 0 -296 -60.5t-242.5 -163.5t-161.5 -244.5t-60 -297.5q0 -208 101.5 -383.5t276.5 -278t382 -102.5q154 0 295 60.5t242.5 163t162 244t60.5 296.5z M662 1698h485q-72 -34 -138 -83h-499q74 45 152 83zM2494 1615h-497q-62 47 -138 83h483q78 -38 152 -83zM351 1506h542q-54 -59 -98 -131h-593q57 63 149 131zM2803 1375h-592q-46 75 -97 131h540q82 -61 149 -131zM126 1285h623q-40 -95 -56 -190h-661q27 96 94 190z M2975 1095h-661q-16 98 -57 190h623q67 -92 95 -190zM15 1013h667q-3 -31 -3 -62q0 -67 11 -138h-660q-19 66 -19 138q0 20 4 62zM2977 813h-662q12 67 12 138q0 20 -2 62h667q3 -32 3 -62q0 -76 -18 -138zM53 745h652q26 -106 85 -210h-597q-91 97 -140 210zM2814 535h-598 q57 98 86 210h652q-49 -113 -140 -210zM251 478h575q110 -159 278 -253h-485q-75 39 -144 84q-137 88 -224 169zM2387 225h-484q168 95 276 253h576q-93 -88 -224 -171q-71 -45 -144 -82zM681 193h486q158 -72 336 -72q179 0 337 72h486q-391 -188 -822 -188 q-432 0 -823 188z" />
<glyph unicode="B" horiz-adv-x="2030" d="M1067 1691v-198q0 -22 -14.5 -37t-36.5 -15t-37.5 15t-15.5 37v198q0 22 15.5 37t37.5 15t36.5 -15t14.5 -37zM439 1232l-142 141q-14 16 -14 36.5t14 36.5q16 16 37 16t37 -16l141 -141q14 -16 14 -36.5t-14 -36.5q-15 -15 -37 -15q-23 0 -36 15zM1734 1373l-141 -141 q-15 -15 -36 -15q-22 0 -37 15q-16 16 -16 36.5t16 36.5l141 141q16 16 36.5 16t36.5 -16t16 -36.5t-16 -36.5zM1016 1277q144 0 266.5 -71.5t193.5 -194t71 -266.5q0 -145 -71 -267t-193.5 -193t-266.5 -71q-145 0 -267 71t-193 193t-71 267q0 144 71 266.5t193 194 t267 71.5zM1016 317q176 0 301.5 125.5t125.5 302.5q0 176 -125.5 302t-301.5 126q-116 0 -215 -57.5t-156.5 -156t-57.5 -214.5q0 -178 125.5 -303t303.5 -125zM53 779h198q22 0 37 -14.5t15 -36.5t-15 -37.5t-37 -15.5h-198q-22 0 -37.5 15.5t-15.5 37.5t15.5 36.5 t37.5 14.5zM1781 779h198q22 0 37 -14.5t15 -36.5t-15 -37.5t-37 -15.5h-198q-22 0 -37 15.5t-15 37.5t15 36.5t37 14.5zM297 83l142 141q14 14 35.5 14t37.5 -14q14 -16 14 -37t-14 -37l-141 -141q-17 -15 -36 -15q-21 0 -38 15q-14 16 -14 37t14 37zM1593 224l141 -141 q16 -16 16 -37t-16 -37q-17 -15 -37 -15q-19 0 -36 15l-141 141q-16 16 -16 37t16 37q16 14 36.5 14t36.5 -14zM963 -237v199q0 22 15.5 37.5t37.5 15.5t36.5 -15.5t14.5 -37.5v-199q0 -22 -14.5 -36.5t-36.5 -14.5t-37.5 14.5t-15.5 36.5z" />
<glyph unicode="C" horiz-adv-x="1829" d="M486 246v3q-205 22 -345.5 177t-140.5 363q0 148 73 273.5t198 198t272 72.5q120 0 227 -50t183 -139l4 -3q-12 55 -12 113q0 207 139 358t342 170q-83 -74 -129.5 -177t-46.5 -219q0 -144 71 -266t193.5 -193t266.5 -71q17 0 49 2q-142 -127 -337 -135q8 -35 8 -82 q0 -43 -7 -78h-3q-26 -126 -122 -214t-225 -101v-2h-295l-106 -195l198 -5l-389 -501l104 325l-232 5l153 371h-91zM536 345h567q122 0 209.5 87.5t87.5 209.5q0 123 -87 210t-210 87q-45 0 -88 -12l-36 -12q-1 -1 -3 -1t-3 -1h-2l-17 42q-39 96 -109 160l-21 18l-2 2 q-119 97 -277 97q-182 0 -314 -130q-45 -45 -80 -109l-1 1q-51 -99 -51 -205q0 -180 128.5 -311t308.5 -133z" />
<glyph unicode="D" horiz-adv-x="2154" d="M1187 1707v-200q0 -22 -15 -36.5t-37 -14.5t-37 14.5t-15 36.5v200q0 22 15 37t37 15t37 -15t15 -37zM488 1461l16 -16q33 3 66 3q120 0 228 -47t187 -132q72 21 150 21q145 0 268 -71t194.5 -194t71.5 -268t-71.5 -268t-194.5 -194.5t-268 -71.5q-154 0 -286 84h-338v4 q-216 23 -363.5 185.5t-147.5 381.5q0 189 112 339t287 205q0 24 15 39q16 16 37 16t37 -16zM1856 1387l-142 -141q-14 -15 -36 -15t-37 15q-16 16 -16 37t16 37l142 141q14 16 35.5 16t37.5 -16t16 -38t-16 -36zM563 411h595q130 0 221.5 91.5t91.5 220.5q0 130 -91.5 221 t-221.5 91q-49 0 -92 -13l-45 -14l-19 45q-54 133 -171.5 212t-260.5 79q-126 0 -233.5 -62.5t-170 -170t-62.5 -233.5q0 -125 61.5 -232t167 -170.5t230.5 -64.5zM1903 792h200q22 0 36.5 -15.5t14.5 -37.5t-14.5 -36.5t-36.5 -14.5h-200q-22 0 -37 14.5t-15 36.5t15 37.5 t37 15.5zM414 93l141 140q16 16 37 16t37 -16t16 -36.5t-16 -36.5l-141 -142q-15 -15 -38 -15q-21 0 -36 15q-16 16 -16 37.5t16 37.5zM1714 233l142 -140q16 -16 16 -37.5t-16 -37.5q-15 -15 -37 -15q-23 0 -36 15l-142 142q-16 16 -16 36.5t16 36.5t37.5 16t35.5 -16z M1083 -227v198q0 22 15 37.5t37 15.5t37 -15.5t15 -37.5v-198q0 -22 -15 -37.5t-37 -15.5t-37 15.5t-15 37.5z" />
<glyph unicode="E" horiz-adv-x="1541" d="M849 1155v124q88 0 149.5 -23t92.5 -62.5t43.5 -81t12.5 -90.5q0 -92 -62 -149q-75 -68 -212 -68q-7 0 -16 0.5t-10 0.5h-847v123h855q30 -2 76 5.5t71 30.5q22 20 22 57q0 73 -40 103t-135 30zM1243 929v124q166 0 239 -79q66 -71 59 -181q-3 -90 -69 -148 q-76 -66 -206 -66h-1266v124h1248q31 -2 74 5t69 29q25 22 26 62q3 61 -24 90q-39 40 -150 40zM0 478h1230q20 -1 55 0.5t91.5 -15t94.5 -49.5q67 -58 70 -148q7 -116 -58 -186q-25 -26 -57 -42t-69.5 -22t-59 -7.5t-54.5 -1.5v123q116 0 151 36q26 28 23 95q-1 39 -26 59 q-27 24 -73 31t-79 4l-6 -1h-1233v124z" />
<glyph unicode="F" horiz-adv-x="2044" d="M1128 1651v-188q0 -20 -14.5 -35t-34.5 -15t-35 15t-15 35v188q0 20 15 35t35 15t34.5 -15t14.5 -35zM465 1418l15 -16q42 4 63 4q113 0 215 -45t179 -126q71 22 142 22q137 0 253.5 -68t184 -184.5t67.5 -253.5t-67.5 -253.5t-184 -184.5t-253.5 -68q-31 0 -60 3v-190 q0 -22 -14.5 -36t-34.5 -14t-34.5 14t-14.5 36v477q0 20 14.5 34.5t34.5 14.5t34.5 -14.5t14.5 -34.5v-112h82q76 0 140.5 35.5t105.5 96.5q47 74 47 162q0 122 -87 209t-209 87q-43 0 -88 -14l-42 -13l-17 43q-52 126 -163 201t-247 75q-146 0 -262 -86q-26 -19 -44 -37 q-65 -61 -101 -144t-36 -175q0 -146 85.5 -262.5t225.5 -160.5q20 -6 29.5 -24.5t2.5 -37.5q-6 -19 -24.5 -28.5t-37.5 -3.5q-170 53 -274.5 195.5t-104.5 321.5q0 114 45.5 216.5t125.5 178.5q93 87 210 124q0 22 13 36q14 14 35.5 14t35.5 -14zM1762 1349l-133 -135 q-16 -14 -36 -14q-19 0 -35 14q-14 14 -14 35.5t14 35.5l135 133q13 14 34 14t35 -14t14 -35t-14 -34zM1807 784h188q20 0 35 -14.5t15 -34.5t-15 -35t-35 -15h-188q-20 0 -35 15t-15 35t15 34.5t35 14.5zM808 666v-476q0 -20 -14.5 -34.5t-34.5 -14.5t-34.5 14.5 t-14.5 34.5v476q0 20 14.5 35.5t34.5 15.5t34.5 -15.5t14.5 -35.5zM597 535v-477q0 -21 -15 -35.5t-36 -14.5q-20 0 -34.5 14.5t-14.5 35.5v477q0 20 14.5 34.5t34.5 14.5t35.5 -14.5t15.5 -34.5zM1629 255l133 -134q14 -14 14 -35t-14 -37q-16 -14 -35 -14q-20 0 -34 14 l-135 135q-14 14 -14 35.5t14 35.5q14 13 35.5 13t35.5 -13zM759 53q25 0 43.5 -18.5t18.5 -43.5t-18.5 -43.5t-43.5 -18.5t-43.5 18.5t-18.5 43.5t18.5 43.5t43.5 18.5zM546 -91q26 0 44 -18.5t18 -43.5t-18.5 -43.5t-43.5 -18.5t-43 18.5t-18 43.5t18 43.5t43 18.5z M970 -91q26 0 44 -18.5t18 -43.5t-18.5 -43.5t-43.5 -18.5t-43 18.5t-18 43.5q0 26 18 44t43 18z" />
<glyph unicode="G" horiz-adv-x="1594" d="M517 297h656q7 0 12 1h31v1q160 17 269 137.5t109 282.5q0 175 -123.5 298.5t-297.5 123.5q-44 0 -79 -8q-73 148 -212 234t-305 86q-156 0 -289 -77.5t-210.5 -211t-77.5 -289.5q0 -109 40.5 -210t109.5 -177t164.5 -126t202.5 -61v-4zM1173 403h-603q-126 1 -233 65 t-169.5 172.5t-62.5 234.5q0 128 63.5 237t172.5 172t236 63q145 0 264.5 -81t173.5 -215l18 -44l47 15q43 13 93 13q131 0 223.5 -92.5t92.5 -223.5t-92.5 -223.5t-223.5 -92.5z" />
<glyph unicode="H" horiz-adv-x="1601" d="M1038 1008l-19 46q-55 135 -174 215.5t-264 80.5q-97 0 -184.5 -37.5t-151.5 -101.5t-101.5 -151.5t-37.5 -184.5q0 -156 92 -280.5t241 -171.5q21 -6 31 -25t4 -40q-7 -22 -26.5 -32.5t-39.5 -3.5q-182 56 -295 209t-113 344q0 157 78 291t212 212t291 78 q166 0 305 -86.5t213 -234.5q33 8 79 8q175 0 299 -124.5t124 -299.5q0 -108 -49.5 -200.5t-136.5 -151t-194 -69.5h-5q-21 0 -36.5 13.5t-16.5 33.5q-2 23 11.5 40t35.5 18q121 12 203 103t82 213q0 132 -93 225t-224 93q-46 0 -93 -14zM867 666v-512q0 -22 -15.5 -37 t-37.5 -15t-37.5 15t-15.5 37v512q0 22 15.5 37.5t37.5 15.5t37.5 -15.5t15.5 -37.5zM640 525v-511q0 -22 -15.5 -37.5t-38.5 -15.5q-22 0 -37 15.5t-15 37.5v511q0 22 15 37.5t37 15.5q23 0 38.5 -15.5t15.5 -37.5zM1094 525v-511q0 -22 -15 -37.5t-38 -15.5q-22 0 -37 15 t-15 38v511q0 23 15 38t37 15q23 0 38 -15t15 -38zM814 9q28 0 47 -19t19 -47t-19 -47t-47 -19t-47.5 19t-19.5 47t19.5 47t47.5 19zM586 -145q28 0 47.5 -19t19.5 -47t-19.5 -47.5t-47.5 -19.5t-46.5 19.5t-18.5 47.5t18.5 47t46.5 19zM1041 -145q28 0 47 -19t19 -47 t-19 -47.5t-47 -19.5t-47 19.5t-19 47.5t19 47t47 19z" />
<glyph unicode="I" horiz-adv-x="1563" d="M507 358v3q-213 23 -360 184.5t-147 377.5q0 115 45 220t121 181t181 121t220 45q161 0 297.5 -84.5t208.5 -228.5q35 7 77 7q171 0 292 -121t121 -292q0 -160 -106.5 -277t-263.5 -134v-2h-307l-111 -204l207 -4l-405 -523l108 338l-242 5l159 388h-95zM560 461h590 q128 0 218.5 91t90.5 219t-90.5 219t-218.5 91q-45 0 -92 -14l-44 -14l-19 44q-53 132 -169.5 210.5t-258.5 78.5q-192 0 -327.5 -135.5t-135.5 -327.5q0 -188 133.5 -323t322.5 -139z" />
<glyph unicode="J" horiz-adv-x="1605" d="M1040 1019l-18 46q-54 135 -174 216t-266 81q-129 0 -238.5 -63.5t-173.5 -173t-64 -238.5q0 -157 92 -282t242 -172q21 -6 31 -25t4 -41q-7 -20 -26.5 -30.5t-39.5 -3.5q-184 56 -296.5 209t-112.5 345q0 158 78 292t212 212t292 78q167 0 306.5 -87t213.5 -235 q36 7 79 7q176 0 300.5 -124.5t124.5 -299.5q0 -164 -109.5 -285t-272.5 -138h-6q-20 0 -35 14t-17 34q-2 22 12 39.5t36 19.5q122 12 203.5 102t81.5 214q0 131 -93 224.5t-225 93.5q-46 0 -94 -14zM816 534q28 0 47 -19.5t19 -47.5t-19 -47t-47 -19t-47 19t-19 47t19 47.5 t47 19.5zM589 378q28 0 47 -19t19 -47t-19 -47t-47 -19t-47.5 19t-19.5 47t19.5 47t47.5 19zM1043 378q28 0 47.5 -19t19.5 -47t-19.5 -47t-47.5 -19t-47 19t-19 47t19 47t47 19zM816 274q28 0 47 -19t19 -47t-19 -47t-47 -19t-47 19t-19 47t19 47t47 19zM589 120 q28 0 47 -19t19 -47t-19 -47.5t-47 -19.5t-47.5 19.5t-19.5 47.5t19.5 47t47.5 19zM1043 120q28 0 47.5 -19t19.5 -47t-19.5 -47.5t-47.5 -19.5t-47 19.5t-19 47.5t19 47t47 19zM816 18q28 0 47 -19t19 -47t-19 -47t-47 -19t-47 19t-19 47t19 47t47 19zM589 -137 q28 0 47 -19t19 -47t-19 -47.5t-47 -19.5t-47.5 19.5t-19.5 47.5t19.5 47t47.5 19zM1043 -137q28 0 47.5 -19t19.5 -47t-19.5 -47.5t-47.5 -19.5t-47 19.5t-19 47.5t19 47t47 19z" />
<glyph unicode="K" horiz-adv-x="1957" d="M520 1417h688q0 49 39 89.5t91 40.5h260q53 0 91.5 -40.5t38.5 -89.5h99q54 0 92.5 -38t38.5 -91v-1039q0 -54 -38.5 -92t-92.5 -38h-1697q-53 0 -91.5 38t-38.5 92v1039q0 53 38.5 91t91.5 38h97q0 49 39.5 89.5t91.5 40.5h32q53 0 91.5 -40.5t38.5 -89.5zM977 274 q126 0 233.5 62.5t169.5 169.5t62 233q0 192 -136.5 329t-328.5 137q-126 0 -233 -62.5t-169.5 -170t-62.5 -233.5q0 -192 136.5 -328.5t328.5 -136.5zM376 979q39 0 67 28t28 67q0 38 -28.5 66t-66.5 28q-40 0 -67.5 -28t-27.5 -66q0 -40 27.5 -67.5t67.5 -27.5zM977 1046 q127 0 216.5 -90t89.5 -217t-89.5 -216.5t-216.5 -89.5t-216.5 89.5t-89.5 216.5t89.5 217t216.5 90z" />
<glyph unicode="L" horiz-adv-x="1036" d="M565 1514q-97 -86 -152 -206.5t-55 -256.5q0 -169 83 -312t226 -226t312 -83q22 0 58 2q-178 -159 -415 -159q-169 0 -312 83.5t-226.5 227t-83.5 312.5q0 119 44 228.5t119.5 191t180 134.5t221.5 64z" />
<glyph unicode="M" horiz-adv-x="1241" d="M907 1466v-715q0 -119 -83.5 -203t-202.5 -84t-202.5 84t-84.5 203v715q1 118 85 202t202 85q119 -1 202.5 -84.5t83.5 -202.5zM1017 726v226q0 4 1 6q0 1 -0.5 3.5t-0.5 3.5q0 47 32.5 79.5t79.5 32.5t79.5 -32.5t32.5 -79.5q0 -1 -0.5 -3.5t-0.5 -4.5l1 -5v-226 q0 -210 -127 -375t-325 -220v-43l301 -99q17 -6 27.5 -21t10.5 -33v-112q0 -24 -16 -40q-18 -16 -40 -16h-903q-24 0 -40 16t-16 40v112q0 18 10.5 33t27.5 21l300 99v43q-197 55 -324 220t-127 375v249q4 43 37.5 72.5t77.5 29.5q47 0 78.5 -32.5t31.5 -79.5q0 -14 -1 -20 v-219q0 -163 117 -280q116 -116 280 -116t280 116t116 280z" />
<glyph unicode="N" horiz-adv-x="1555" d="M1554 1638v-1334q10 -96 -65 -177t-195 -103q-124 -22 -224.5 34t-117.5 157q-17 100 58.5 186t199.5 108q107 19 201 -23v633l-805 -207v-778q0 -8 -1 -11q11 -96 -64.5 -178t-195.5 -102q-124 -22 -224.5 33.5t-117.5 156.5q-17 100 58.5 186.5t200.5 108.5 q107 19 201 -23v1053q0 30 21.5 56.5t51.5 34.5l945 244q31 7 52 -9t21 -46z" />
<glyph unicode="O" horiz-adv-x="1867" d="M203 805v78v3q17 196 104 367q41 80 95 144q-19 18 -20.5 44.5t15.5 45.5q94 109 230 170.5t290 65.5q155 4 295.5 -52.5t240.5 -163.5q19 -20 18 -46t-20 -45q52 -59 93 -134.5t64 -141t38 -137.5t20.5 -116t7.5 -85q37 -8 68 -25t61 -48.5t47 -86.5t17 -129 q0 -78 -19 -138t-52.5 -96t-66.5 -56t-71 -31q-4 -46 -35.5 -79.5t-77.5 -39.5v-336q0 -13 -9.5 -22.5t-23.5 -9.5q-13 0 -22.5 9.5t-9.5 22.5v344q-36 14 -58.5 47t-22.5 74v628q0 53 36 90.5t88 39.5q-15 74 -38.5 140.5t-69.5 142t-107 129.5t-155.5 90t-210.5 36 q-93 0 -174 -21.5t-138 -55.5t-104.5 -82.5t-77 -96t-52.5 -103t-34 -96.5t-18 -83q54 -1 91.5 -38.5t37.5 -91.5v-628q0 -54 -38 -92t-92 -38q-51 0 -88 34.5t-42 84.5q-39 11 -72 30.5t-67 55t-54 96.5t-20 140q0 76 18.5 133t50.5 88.5t64 47.5t70 23z" />
<glyph unicode="P" horiz-adv-x="1894" d="M947 1666q193 0 368.5 -75t302.5 -202t202 -302t75 -368q0 -154 -48 -299t-135.5 -261.5t-204 -204t-261.5 -135.5t-299 -48q-193 0 -368 75t-302 202t-202 302.5t-75 368.5t75 368t202 302t302 202t368 75zM952 550l102 395q2 7 4.5 18t7 44t6 63t-3.5 66.5t-17 62.5 t-38.5 44t-65.5 18t-65.5 -16.5t-39 -43.5t-18 -59t-3.5 -64t5 -59t7 -43l4 -17zM947 177q56 0 95.5 39t39.5 94q0 54 -39.5 92.5t-95.5 38.5q-55 0 -94.5 -38.5t-39.5 -92.5q0 -55 39.5 -94t94.5 -39z" />
<glyph unicode="Q" horiz-adv-x="1900" d="M950 1663q194 0 370 -75.5t303.5 -202.5t202.5 -303.5t75 -369.5t-75 -369.5t-202.5 -303.5t-303.5 -202.5t-370 -75.5q-193 0 -369 75.5t-303.5 202.5t-202.5 303.5t-75 369.5t75 369.5t202.5 303.5t303.5 202.5t369 75.5zM951 520l188 -190q42 -40 96 -40q56 0 96 40 q41 40 41 96t-41 96l-189 190l189 190q40 40 40 96t-40 96t-96 40t-96 -40l-189 -190l-189 190q-41 40 -96.5 40t-95.5 -40q-41 -40 -41 -96t41 -96l189 -190l-189 -190q-41 -40 -41 -96t41 -96q40 -40 96 -40t96 40z" />
<glyph unicode="R" d="M449 1648h848q186 0 317.5 -131.5t131.5 -317.5v-887q0 -186 -131.5 -317.5t-317.5 -132.5h-848q-186 1 -317.5 132.5t-131.5 317.5v887q0 186 131.5 317.5t317.5 131.5zM1247 1112h144q19 0 33 14t14 33v145q0 20 -14 33.5t-33 13.5h-144q-19 0 -33 -13.5t-14 -33.5 v-145q0 -19 14 -33t33 -14zM1560 879h-315q37 -79 37 -170q0 -166 -117.5 -283t-283.5 -117t-283 117t-117 283q0 89 38 170h-333v-550q0 -109 78 -187t187 -78h844q109 0 187 78t78 187v550zM881 543q69 0 118 48.5t49 117.5q0 70 -48.5 118t-118.5 48q-69 0 -117.5 -48.5 t-48.5 -117.5q0 -68 49 -117t117 -49z" />
<glyph unicode="S" horiz-adv-x="2115" d="M2115 1261h-174q-31 0 -54 -18t-23 -42v-855q0 -25 22.5 -42t54.5 -17h174v-72h-66v-127h66v-27q0 -25 -23 -43t-55 -18h-1957q-32 0 -56 18t-24 43v27h53v127h-53v72h203q32 0 55 17t23 42v855q0 24 -23.5 42t-54.5 18h-203v72h53v126h-53v27q0 25 23.5 42.5t56.5 17.5 h1957q32 0 55 -17.5t23 -42.5v-28h-66v-125h66v-72zM157 1333h128v126h-128v-126zM395 1333h125v126h-125v-126zM631 1333h124v126h-124v-126zM866 1333h128v126h-128v-126zM1107 1333h130v125h-130v-125zM1347 1333h124v125h-124v-125zM1582 1333h124v125h-124v-125z M1946 1458h-129v-125h129v125zM1727 346v855q0 24 -23 42t-55 18h-1155q-32 0 -55 -18t-23 -42v-855q0 -25 23 -42t55 -17h1155q32 0 55 17t23 42zM285 215h-128v-127h128v127zM520 215h-125v-127h125v127zM755 215h-124v-127h124v127zM994 215h-128v-127h128v127zM1237 215 h-130v-127h130v127zM1471 215h-124v-127h124v127zM1706 215h-124v-127h124v127zM1946 215h-129v-127h129v127z" />
<glyph unicode="T" horiz-adv-x="2100" d="M1608 362h-1608v1243h1608v-1243zM112 474h1384v1019h-1384v-1019zM1663 202l83 1015l-88 7v113l209 -17l-97 -1183l-4 -56l-1604 133l8 99h141zM347 149l140 -8l1344 -192l143 1008l-87 12l7 112l207 -30l-167 -1173l-8 -55l-1593 226z" />
<glyph unicode="U" horiz-adv-x="2144" d="M86 989v5q93 -52 199 -55q-90 60 -143 157t-53 209q0 119 60 222q166 -203 401.5 -325t505.5 -135q-11 44 -11 100q0 182 129 311t311 129q94 0 177 -36.5t144 -101.5q144 27 280 106q-50 -156 -195 -244q127 14 253 70q-87 -132 -219 -227q2 -38 2 -57 q0 -125 -26.5 -252.5t-80.5 -250.5t-131 -234.5t-182.5 -205.5t-230 -163t-279 -108t-323.5 -39q-367 0 -674 198q68 -6 105 -6q306 0 546 189q-143 2 -255.5 87t-155.5 218q36 -8 83 -8q57 0 116 16q-152 30 -252.5 151.5t-100.5 279.5z" />
<glyph unicode="V" horiz-adv-x="1755" d="M329 1609h1097q136 0 232.5 -96.5t96.5 -232.5v-1097q0 -137 -96.5 -233t-232.5 -96h-400q-2 0 -2 1v767h202q36 0 37 26l14 187q2 17 -10 29q-12 14 -27 14h-216v82q0 50 13 65t62 15q64 0 134 -15q16 -3 30 6q14 10 15 25l26 190q1 13 -7 25t-22 16q-111 30 -225 30 q-355 0 -355 -342v-97h-109q-15 0 -26 -12t-11 -28v-197q0 -13 7.5 -16t24.5 -3h5h109v-767l11 -1h-377q-137 0 -233 96t-96 233v1097q0 136 96 232.5t233 96.5z" />
<glyph unicode="W" horiz-adv-x="1918" d="M1371 1121h347q83 0 142 -59t59 -142v-856q0 -83 -59 -142t-142 -59h-622q-38 0 -74 14l-316 124q-20 -61 -72.5 -99.5t-118.5 -38.5h-314q-83 0 -142 59t-59 142v856q0 83 59 142t142 59h314q36 0 76 -15l224 413q25 48 73 76t103 28h179q84 0 142.5 -58.5t58.5 -141.5 v-302zM717 918v-704l379 -150h622v856h-548v503h-179zM515 64v123q-2 18 -2 28v698q0 1 0.5 3.5t0.5 3.5h-313v-856h314zM362 335q-42 0 -71 -29.5t-29 -71.5q0 -41 29 -70.5t71 -29.5q41 0 71 29.5t30 70.5q0 42 -30 71.5t-71 29.5z" />
<glyph unicode="X" horiz-adv-x="2412" d="M2242 1357h93q3 0 8.5 -1t19 -6.5t23.5 -15.5t18.5 -31t8.5 -49v-799q0 -45 -19.5 -70.5t-39.5 -28.5l-19 -4h-93q-42 0 -79.5 16t-54.5 32l-17 15l-225 227v-491q-7 -51 -46 -86t-92 -35h-240q-25 1 -44.5 3t-33.5 3.5t-26.5 9t-19.5 10.5t-18 16.5t-15 19t-17.5 26 t-20.5 29.5q-49 74 -171 74l-34 -3h-638q-111 0 -153 78v518h-92l-16 2l-7 -8q-33 -35 -86 -35h-53q-2 0 -5 0.5t-10 4t-13 9t-10.5 17t-4.5 27.5v452q0 25 11 39.5t21 17.5l11 2h53q24 0 45.5 -9t30.5 -19l10 -9l13 -11h102q0 58 41.5 98.5t99.5 40.5h1290q53 0 92 -34.5 t46 -85.5v-247l225 228q6 7 18.5 17.5t51.5 28t81 17.5zM1443 710v232q0 55 -37.5 94t-90.5 39h-577q-53 0 -91 -39t-38 -94v-232q0 -55 38 -94.5t91 -39.5h577q53 0 90.5 39.5t37.5 94.5zM850 946q49 0 83 -34t34 -82q0 -49 -34 -83t-83 -34q-48 0 -82 34t-34 83 q0 48 34 82t82 34zM1200 946q48 0 82.5 -34t34.5 -82q0 -49 -34.5 -83t-82.5 -34t-82.5 34t-34.5 83q0 48 34.5 82t82.5 34z" />
<glyph unicode="Y" horiz-adv-x="2067" d="M1034 1746q165 0 319.5 -51t279 -144.5t218 -218t144.5 -278.5t51 -319q0 -228 -101 -433q-76 -160 -202 -284.5t-287 -201.5q-205 -93 -422 -93q-216 0 -425 95q-163 77 -289.5 204t-200.5 288q-96 198 -96 425q0 206 80 393t215.5 322.5t322.5 215.5t393 80zM1431 330 l352 84q66 154 66 321q0 51 -6 87l-202 115l53 273q-156 221 -417 304l-243 -172l-242 172q-122 -38 -227 -112.5t-179 -175.5l41 -289l-204 -124q-5 -43 -5 -78q0 -170 69 -322l336 -83l89 -345q156 -65 322 -65q168 0 315 63zM1438 837l-201 -406h-405l-202 406l404 302z " />
<glyph unicode="Z" horiz-adv-x="1867" d="M203 805v78v3q17 196 104 367q41 80 95 144q-19 18 -20.5 44.5t15.5 45.5q94 109 230 170.5t290 65.5q155 4 295.5 -52.5t240.5 -163.5q19 -20 18 -46t-20 -45q52 -59 93 -134.5t64 -141t38 -137.5t20.5 -116t7.5 -85q37 -8 68 -25t61 -48.5t47 -86.5t17 -129 q0 -78 -19 -138t-52.5 -96t-66.5 -56t-71 -31q-4 -46 -35.5 -79.5t-77.5 -39.5v-336q0 -13 -9.5 -22.5t-23.5 -9.5q-13 0 -22.5 9.5t-9.5 22.5v344q-36 14 -58.5 47t-22.5 74v628q0 53 36 90.5t88 39.5q-15 74 -38.5 140.5t-69.5 142t-107 129.5t-155.5 90t-210.5 36 q-93 0 -174 -21.5t-138 -55.5t-104.5 -82.5t-77 -96t-52.5 -103t-34 -96.5t-18 -83q54 -1 91.5 -38.5t37.5 -91.5v-628q0 -54 -38 -92t-92 -38q-51 0 -88 34.5t-42 84.5q-39 11 -72 30.5t-67 55t-54 96.5t-20 140q0 76 18.5 133t50.5 88.5t64 47.5t70 23zM1186 529l-404 231 q-24 16 -44 6t-20 -38v-469q0 -25 20 -35.5t44 2.5l143 84q97 56 118 67l143 84q24 14 24 32.5t-24 35.5z" />
<glyph unicode="[" horiz-adv-x="2002" d="M1601 1014v-301h300q42 0 71.5 -28.5t29.5 -69.5v-601q0 -41 -29.5 -70.5t-71.5 -29.5h-500v-100q0 -29 -15.5 -53.5t-41.5 -38.5q-20 -8 -43 -8q-39 0 -63 23l-453 376h-284q-41 0 -71 30t-30 71v800h-299q-41 0 -71 29t-30 70v500q0 42 30 71.5t71 29.5h630 q11 -109 92.5 -183.5t190.5 -74.5q111 0 191.5 74t91.5 184h604q42 0 71.5 -29.5t29.5 -71.5v-500q0 -41 -29.5 -70t-71.5 -29h-300zM1901 615h-600v199l-600 -501l600 -499v200h600v601z" />
<glyph unicode="\" horiz-adv-x="1915" d="M1635 1392q138 -138 209.5 -317t71.5 -360t-71.5 -360t-209.5 -316q-138 -138 -317 -210t-360 -72t-360 72t-317 210t-210 316.5t-72 360t72 360t210 316.5t317 209.5t360 71.5t360 -71.5t317 -209.5zM943 1506q-78 0 -131.5 -53t-53.5 -130t54 -131t131 -54 q76 0 129.5 54t53.5 131t-53 130t-130 53zM1238 159v120q0 57 -57 57h-88v687q0 57 -58 57h-330q-57 0 -57 -57v-120q0 -57 57 -57h90v-510h-88q-57 0 -57 -57v-120q0 -57 57 -57h474q57 0 57 57z" />
<glyph unicode="]" horiz-adv-x="2000" d="M1600 1014v-319l363 -303q37 -34 37 -78q0 -46 -37 -77l-600 -500q-28 -23 -64 -23q-21 0 -41 9q-27 13 -42.5 37.5t-15.5 53.5v100h-499q-42 0 -71.5 29.5t-29.5 70.5v100h-99q-42 0 -71.5 29.5t-29.5 70.5v800h-301q-41 0 -70 29t-29 71v500q0 41 29 70.5t70 29.5h634 q11 -109 91 -183t190 -74t191 74.5t92 182.5h602q41 0 71 -29.5t30 -70.5v-500q0 -42 -29.5 -71t-71.5 -29h-299zM1299 814v-199h-598v-601h598v-200l600 500z" />
<glyph unicode="^" horiz-adv-x="2014" d="M201 1613h1410q168 0 286 -118.5t118 -285.5v-804q0 -167 -118 -285.5t-286 -118.5h-1410v-288h-201v1900q0 42 29.5 71t71.5 29t71 -29t29 -71zM1814 807v402q0 84 -59.5 143t-143.5 59h-603v-604h-807v-606h807v606h806z" />
<glyph unicode="_" horiz-adv-x="1987" d="M762 1712h406h6t14.5 -3.5t18 -10t14 -21t6.5 -35.5l-1 -612q0 -24 15 -35t30 -11l15 1h122q64 0 -19 -92l-29 -31q-293 -289 -341 -345q-38 -41 -51.5 -40.5t-54.5 41.5l-347 344l-38 38q-78 85 -5 84h136q2 0 5 -0.5t11 1.5t14 6t11 14.5t5 26.5l1 610q0 33 14 50.5 t28 18.5zM1987 598v-859h-1987v856q183 381 226 485q8 18 25 28.5t31 11.5l13 1h121q23 0 32.5 -1t20.5 -5t15 -14t4 -28v-40q0 -27 -12.5 -40.5t-25.5 -13.5h-12h-61q-19 1 -33.5 -13.5t-19.5 -29.5l-5 -14q-58 -150 -109 -241q-23 -45 -14 -63t32 -18l22 -1h245 q32 0 54.5 -7t31.5 -17.5t13 -20.5t4 -17l-1 -7v-16q0 -141 111 -242.5t261 -101.5t251 100t101 244v17q2 1 0 7.5t3 16.5t13.5 20t30.5 17t54 7q48 0 123.5 -0.5t143.5 -0.5q25 0 39.5 7.5t17 19t1 22.5t-4.5 19l-4 7q-89 216 -107 250q-30 48 -40 54q-8 5 -18 5h-74 q-28 0 -42 13t-14 25v13v40q0 25 17.5 37t35.5 12h18q72 -1 143 0q22 0 40.5 -10.5t25.5 -21.5l7 -10z" />
<glyph unicode="`" horiz-adv-x="2038" d="M203 1565l1771 -660q29 -11 46.5 -36t17.5 -55t-17.5 -55.5t-47.5 -35.5l-1770 -635v-377h-202v1932q0 42 29.5 72t71.5 30t71.5 -30t29.5 -72v-78zM203 1191v-703q0 -49 27.5 -79t70.5 -30q18 0 45 10l1052 377q59 22 59 52.5t-58 53.5l-1055 415q-23 10 -48 10 q-41 0 -67 -29t-26 -77z" />
<glyph unicode="a" horiz-adv-x="1867" d="M1867 727q0 190 -74 363.5t-199 298.5t-297.5 199t-362.5 74t-363 -74t-298 -199t-199 -298.5t-74 -363.5q0 -152 47 -294.5t133.5 -257.5t201.5 -201.5t257.5 -133.5t294.5 -47q190 0 362.5 74t297.5 199t199 298t74 363zM777 610l516 607l174 -160l-673 -819l-394 473 l165 148z" />
<glyph unicode="b" horiz-adv-x="1925" d="M963 1682q196 0 374 -76t307 -205t205.5 -307t76.5 -374t-76.5 -374t-205.5 -307t-307 -205t-374 -76t-374.5 76t-307.5 205t-205 307t-76 374t76 374t205 307t307.5 205t374.5 76zM1472 211q99 99 154.5 230.5t55.5 278.5t-55.5 278.5t-154.5 230.5 q-100 100 -231.5 155.5t-277.5 55.5t-277.5 -55.5t-231.5 -155.5t-155.5 -231.5t-55.5 -277.5t55.5 -277.5t155.5 -231.5q100 -99 231 -154.5t278 -55.5t278.5 55.5t230.5 154.5zM469 702v37q67 111 168 182t213.5 91t225 0t213.5 -91t168 -182v-37q-56 -93 -137 -158.5 t-170 -96t-187 -30.5t-187 30.5t-170 96t-137 158.5zM963 491q94 0 161 67t67 162t-67 162t-161 67q-95 0 -161.5 -67t-66.5 -162t66.5 -162t161.5 -67zM963 834q47 0 80.5 -33.5t33.5 -80.5t-33.5 -80.5t-80.5 -33.5t-80.5 33.5t-33.5 80.5t33.5 80.5t80.5 33.5z" />
<glyph unicode="c" horiz-adv-x="1993" d="M1619 1239h261q61 0 92.5 -43.5t14.5 -105.5q-16 -61 -71.5 -105t-117.5 -44h-261l-105 -380h261q61 0 93 -43t15 -105q-17 -61 -73 -105t-118 -44h-260l-72 -262q-17 -61 -72.5 -104.5t-117.5 -43.5t-94 43.5t-15 104.5l72 262h-379l-72 -262q-17 -61 -72.5 -104.5 t-117.5 -43.5q-61 0 -93 43t-15 105l72 262h-261q-61 0 -92.5 43.5t-14.5 105.5t72.5 105t116.5 43h261l105 380h-260q-61 0 -93.5 43.5t-15.5 105.5q17 61 73 105t118 44h260l72 260q17 62 73 106t117 44q62 0 94 -44.5t15 -105.5l-72 -260h379l72 260q17 62 73 106t117 44 t93 -44t15 -106zM1239 941h-380l-105 -380h380z" />
<glyph unicode="d" horiz-adv-x="1698" d="M131 128v2q-1 0 -5 -1t-5 -1q-50 0 -85.5 35.5t-35.5 85.5t35.5 85.5t85.5 35.5h2q2 -1 3 -1v2q44 0 69 22q1 1 3.5 3t4 4t2.5 3q20 25 20 77q0 330 100 578t288 347q13 70 45.5 136.5t84 114.5t106.5 48q54 0 105 -48t84 -115t47 -136q188 -99 288 -347t100 -578 q0 -16 0.5 -26t6 -27.5t15 -27.5t29 -18.5t47.5 -9.5v-2q1 0 3 0.5t3 0.5q50 0 85.5 -35.5t35.5 -85.5q0 -49 -36 -85t-85 -36q-3 0 -6 1t-5 1v-2h-1435zM605 7h486q0 -101 -71 -171.5t-173 -70.5q-101 0 -171.5 70.5t-70.5 171.5z" />
<glyph unicode="e" horiz-adv-x="1848" d="M1489 913h256q43 0 73 -30.5t30 -72.5v-103q0 -43 -30 -72t-73 -29h-243q-15 -71 -51 -144l181 -183q31 -29 31 -71.5t-31 -72.5l-73 -73q-29 -30 -71.5 -30t-72.5 30l-166 164q-65 -45 -145 -73v-241q0 -42 -30 -72.5t-72 -30.5h-103q-42 0 -72 30.5t-30 72.5v214 q-83 14 -171 56l-156 -157q-29 -29 -72 -29t-72 29l-73 73q-30 30 -30 72.5t30 72.5l140 140q-53 73 -83 171h-207q-43 0 -73 30t-30 72v103q0 42 30.5 73t72.5 31h194q19 92 68 176l-149 147q-29 31 -29.5 74t29.5 73l73 72q30 30 72.5 30t72.5 -30l145 -146q79 48 166 70 v225q0 43 30 73t73 30h103q42 0 72 -30t30 -73v-225q82 -21 152 -60l173 172q30 30 72.5 30t72.5 -30l72 -72q31 -30 31 -72.5t-31 -72.5l-170 -171q41 -67 64 -140zM899 478q106 0 181 74.5t75 180.5q0 107 -75 182t-181 75q-107 0 -182 -75t-75 -182q0 -106 75 -180.5 t182 -74.5z" />
<glyph unicode="f" horiz-adv-x="2053" d="M718 1682l-641 -641q-90 133 -74.5 299t133.5 284q117 117 283 132.5t299 -74.5zM1977 1041l-641 641q133 90 299 74.5t283 -132.5q118 -118 133.5 -284t-74.5 -299zM275 -165l172 173q-121 112 -188.5 265.5t-67.5 325.5q0 165 64 315t173 259t259 173t315 64 q220 0 407 -108.5t296 -295.5t109 -407q0 -163 -61 -309t-170 -258q-19 17 -45 15.5t-45 -20.5q-16 -16 -19 -39.5t8 -42.5q-215 -158 -480 -158q-244 0 -449 135l-183 -181q-20 -19 -48 -19t-47 19t-19 47t19 47zM1002 58q110 0 210 43t172.5 115.5t115.5 172.5t43 210 q0 147 -72.5 271.5t-197 197.5t-271.5 73q-146 0 -270.5 -73t-197 -197.5t-72.5 -271.5t72.5 -271.5t196.5 -197t271 -72.5zM1027 659l195 -155q22 -17 24.5 -45t-14.5 -50q-21 -25 -53 -25q-23 0 -42 15l-220 176q-8 7 -16 18q-10 17 -10 34v135q0 28 20 48t48 20 q29 0 48.5 -20t19.5 -48v-103zM1683 -259l-190 190q-9 9 -11 14q60 44 101 87l195 -197q20 -19 20 -47t-20 -47t-48 -19t-47 19z" />
<glyph unicode="g" horiz-adv-x="1898" d="M950 1697q154 0 299 -48t261.5 -136t204 -204.5t135.5 -261.5t48 -300q0 -154 -48 -299t-135.5 -261.5t-204 -204t-261.5 -135.5t-299 -48q-155 0 -300 48t-261.5 135.5t-204.5 204t-136 261.5t-48 299q0 193 75 369t202.5 303.5t303.5 202.5t369 75zM950 75 q136 0 260.5 53.5t215 143.5t144 214.5t53.5 260.5q0 182 -90.5 337.5t-245.5 246t-337 90.5q-137 0 -261.5 -53.5t-214.5 -144t-143.5 -215t-53.5 -261.5q0 -136 53.5 -260.5t143.5 -214.5t214.5 -143.5t261.5 -53.5zM998 855l319 -256q22 -17 25.5 -45.5t-14.5 -50.5 q-21 -26 -54 -26q-25 0 -43 14l-345 276l-5 4q-22 20 -22 51v275q0 29 20.5 49.5t49.5 20.5t49 -20.5t20 -49.5v-242z" />
<glyph unicode="h" horiz-adv-x="2589" d="M0 733v99q146 243 358 413.5t446.5 251t490.5 80.5t490.5 -80.5t446.5 -251t358 -413.5v-99q-146 -243 -358 -413.5t-446.5 -251t-490.5 -80.5t-490.5 80.5t-446.5 251t-358 413.5zM1295 184q162 0 299 80.5t217 218t80 299.5t-80 299.5t-217 217.5t-299 80t-300 -80 t-218 -217.5t-80 -299.5t80 -299.5t218 -218t300 -80.5zM1593 782q0 124 -87 211.5t-211 87.5q-125 0 -212.5 -87.5t-87.5 -211.5t88 -211.5t212 -87.5t211 87.5t87 211.5z" />
<glyph unicode="i" horiz-adv-x="2082" d="M1638 437l384 -386q60 -59 60 -142t-60 -142q-58 -60 -142 -60t-143 60l-374 371q-220 -147 -489 -147q-178 0 -339.5 69.5t-278.5 186.5t-186.5 279t-69.5 340t69.5 340t186.5 279.5t279 187t339 69.5q142 0 276 -44.5t242 -125.5t189 -189t125.5 -241.5t44.5 -275.5 q0 -227 -113 -429zM270 866q0 -165 81 -304.5t220 -221t303 -81.5q165 0 305 81.5t221 221t81 304.5q0 164 -81 303.5t-221 220.5t-305 81q-164 0 -303 -81t-220 -220.5t-81 -303.5z" />
<glyph unicode="j" horiz-adv-x="1900" d="M1669 1618v-161q99 -19 165.5 -97t66.5 -181v-1073q0 -118 -83 -200.5t-201 -82.5h-1334q-118 0 -200.5 82.5t-82.5 200.5v1073q0 106 68 184.5t170 95.5q1 1 1 3h7v156q0 32 23.5 55.5t55.5 23.5h158q32 0 55.5 -23.5t23.5 -55.5v-156h790v156q0 32 23.5 55.5t55.5 23.5 h159q32 0 55.5 -23.5t23.5 -55.5zM529 1091h-275v-272h275v272zM909 1091h-276v-272h276v272zM1281 1091h-271v-272h271v272zM1657 1091h-272v-272h272v272zM529 728h-275v-271h275v271zM909 728h-276v-271h276v271zM1281 728h-271v-271h271v271zM1657 728h-272v-271h272 v271zM529 369h-275v-272h275v272zM909 369h-276v-272h276v272zM1281 369h-271v-272h271v272zM1385 369v-272l272 272h-272z" />
<glyph unicode="k" horiz-adv-x="1626" d="M118 1561l5 1q204 0 399 -54t360 -151t303.5 -236t235.5 -303.5t151 -359.5t54 -400v-5l-1 -13q-1 -46 -35 -76t-81 -28q-46 2 -76 36t-28 81v5q0 261 -99 495.5t-276 411.5q-178 177 -412 276t-495 100l-6 -2q-46 -2 -80.5 29t-36.5 77t28.5 80t76.5 36h13zM105 1099h18 q212 0 405 -82.5t332.5 -222t222 -332t82.5 -404.5v-5l-2 -13q-2 -46 -36 -76t-80 -28t-76.5 36.5t-28.5 80.5l1 11q-1 165 -64 313t-176 261q-114 114 -263.5 177t-316.5 63h-6q-46 -2 -80.5 28t-36.5 76t28.5 80.5t76.5 36.5zM118 632h5q156 0 288 -77t208.5 -209 t76.5 -288v-18q-2 -46 -36.5 -76t-80.5 -28t-76.5 36t-28.5 81v5q0 146 -103 249q-102 102 -242 103l-12 -1q-46 -2 -80.5 29t-36.5 76q-2 47 28.5 81t76.5 36zM139 206q54 0 93 -38.5t39 -93.5q0 -54 -39 -92.5t-93 -38.5q-55 0 -93 38.5t-38 92.5q0 55 38 93.5t93 38.5z " />
<glyph unicode="l" horiz-adv-x="1190" d="M217 1643h758q89 0 152.5 -64t63.5 -153v-1391q0 -89 -63.5 -152.5t-152.5 -63.5h-758q-90 0 -153.5 63.5t-63.5 152.5v1391q0 89 63.5 153t153.5 64zM759 1535h-325q-23 0 -39 -15.5t-16 -38.5t16 -39t39 -16h325q23 0 38.5 16t15.5 39t-15.5 38.5t-38.5 15.5zM975 1319 h-758v-1174h758v1174zM595 -102q35 0 60 25t25 59q0 35 -25 59.5t-60 24.5t-59.5 -24.5t-24.5 -59.5t24.5 -59.5t59.5 -24.5z" />
<glyph unicode="m" horiz-adv-x="1813" d="M379 94q38 0 62 29q20 25 17 58t-28 53q-130 107 -200.5 258t-70.5 319q0 203 100 375.5t272 273t375 100.5q152 0 291 -59.5t239 -160t159.5 -239t59.5 -290.5q0 -167 -71 -317t-199 -257q-25 -22 -27.5 -54.5t17.5 -57.5q22 -26 54.5 -29.5t57.5 18.5 q156 130 241.5 312t85.5 385q0 185 -72 353t-193.5 289.5t-289.5 193.5t-353 72q-184 0 -351.5 -72t-289 -193.5t-193.5 -289.5t-72 -353q0 -203 86 -385.5t243 -313.5q25 -18 50 -18zM442 441q22 0 43 12q28 18 35 49t-10 60q-72 111 -72 249q0 194 137.5 332t330.5 138 q194 0 332 -138t138 -332q0 -132 -69 -244q-17 -29 -9.5 -60.5t36.5 -48.5t60.5 -9.5t48.5 36.5q92 153 92 326q0 127 -50 243.5t-134 201t-200.5 134.5t-244.5 50q-170 0 -314.5 -84.5t-228.5 -229.5t-84 -315q0 -182 96 -333q23 -37 67 -37zM1145 808q0 104 -73.5 177 t-176.5 73t-176.5 -73t-73.5 -177t73.5 -177t176.5 -73t176.5 73t73.5 177zM645 473h500q103 0 107 -162q3 -150 -71 -349q-63 -170 -126 -224q-20 -17 -36 -17h-250q-47 0 -110 123q-77 150 -109 329q-37 212 32 277q25 23 63 23z" />
<glyph unicode="n" horiz-adv-x="1942" d="M918 1635v-123q174 -35 316.5 -141t228 -263.5t94.5 -338.5q186 -36 309 -184t123 -342q0 -145 -71.5 -268t-195 -194.5t-268.5 -71.5q-142 0 -261.5 68t-192.5 184q-127 -39 -242 -39q-219 0 -404 108t-292.5 293t-107.5 403q0 191 83.5 358t229.5 279t328 149v123h-53 q-22 0 -38 16.5t-16 38.5q0 20 16 36.5t38 16.5h429q21 0 37 -16t16 -37q0 -23 -15.5 -39t-37.5 -16h-53zM1557 1286l-228 227q-16 17 -37.5 17t-37.5 -17t-16 -38t16 -38l228 -227q14 -16 36.5 -16t38.5 16q17 16 17 38t-17 38zM918 243q0 191 121 339t304 186 q-10 151 -90.5 276t-211 197t-283.5 72q-160 0 -296.5 -78.5t-215.5 -213.5t-79 -295q0 -120 47 -229t126 -187.5t188.5 -125t229.5 -46.5q92 0 168 23q-8 43 -8 82zM904 799l77 76q8 7 16 15t17.5 21t14 25t3 25.5t-12.5 24.5q-39 39 -115 -37l-74 -74l-76 -76 q-76 -75 -37 -114q38 -38 114 38zM1559 457h-236l-83 -106h214v-429h105v535z" />
<glyph unicode="o" horiz-adv-x="2026" d="M245 410v367q-91 0 -168 76.5t-77 168.5v489q0 91 76.5 167.5t168.5 76.5h978q91 0 167.5 -76.5t76.5 -167.5v-489q0 -92 -76.5 -168.5t-167.5 -76.5h-612zM1659 1082h123q92 0 168 -76t76 -168v-489q0 -92 -76.5 -168.5t-167.5 -76.5v-367l-367 367h-612 q-91 0 -167.5 76.5t-76.5 168.5v72l172 172h562q93 0 178 52t136.5 137t51.5 178v122z" />
<glyph unicode="p" horiz-adv-x="2026" d="M245 410v367q-91 0 -168 76.5t-77 168.5v489q0 91 76.5 167.5t168.5 76.5h978q91 0 167.5 -76.5t76.5 -167.5v-489q0 -92 -76.5 -168.5t-167.5 -76.5h-612zM743 1398l-104 58q-17 11 -31.5 4t-14.5 -27v-335q0 -18 14.5 -25.5t31.5 1.5l102 61q65 38 84 47l103 60 q17 11 17 24.5t-17 24.5zM1659 1082h123q92 0 168 -76t76 -168v-489q0 -92 -76.5 -168.5t-167.5 -76.5v-367l-367 367h-612q-91 0 -167.5 76.5t-76.5 168.5v72l172 172h562q93 0 178 52t136.5 137t51.5 178v122z" />
<glyph unicode="q" horiz-adv-x="1492" d="M214 1755h1065q89 0 151.5 -62.5t62.5 -150.5v-1598q0 -88 -62.5 -151t-151.5 -63h-1065q-88 0 -151 63t-63 151v1598q0 88 62.5 150.5t151.5 62.5zM1279 1542h-1065v-1492h1065v1492zM853 -56h-213v-107h213v107z" />
<glyph unicode="r" horiz-adv-x="2253" d="M563 -106v112h226v113h-789v1465h2254v-1465h-789v-113h225v-112h-1127zM2029 345v1014h-1804v-1014h1804z" />
<glyph unicode="s" horiz-adv-x="1965" d="M882 1643v-115q250 -52 419.5 -246.5t185.5 -452.5q215 -19 363 -178t148 -377q0 -152 -75 -281t-203.5 -203.5t-279.5 -74.5q-168 0 -305.5 92t-204.5 242q-106 -31 -200 -31q-207 0 -382.5 103t-277.5 278.5t-102 381.5q0 180 79.5 339t218.5 265.5t311 142.5v115h-50 q-22 0 -36 14.5t-14 36.5q0 21 14.5 35.5t35.5 14.5h406q20 0 35 -15t15 -35q0 -21 -15 -36t-35 -15h-51zM1487 1310l-215 218q-35 28 -73 0q-13 -16 -13 -36.5t13 -36.5l218 -215q14 -14 35 -14t35 14q17 14 17 35.5t-17 34.5zM882 274q0 188 113 336t290 199 q-11 222 -172 375.5t-383 153.5q-152 0 -280.5 -74t-203.5 -202.5t-75 -280.5q0 -113 44 -216t119 -178t178.5 -119t217.5 -44q80 0 153 22q0 5 -0.5 14.5t-0.5 13.5zM871 850l71 72q51 54 48 84q-1 13 -12 24q-37 37 -107 -36l-73 -72l-70 -72q-2 -2 -10 -11t-12 -14 t-11.5 -15t-10 -17.5t-5 -17t0.5 -18t10 -16.5q39 -35 108 37zM1694 527h-508v-101h406v-103h-406v-305h508v103h-406v103h406v303z" />
<glyph unicode="t" horiz-adv-x="1784" d="M947 961l-16 41q-49 124 -158.5 197.5t-242.5 73.5q-99 0 -185 -41t-147 -114q-1 -1 -3 -4t-3 -4q-11 -14 -13 -17q-13 -19 -30 -51q-2 0 -2 1q-50 -95 -50 -203q0 -143 84 -257t220 -156q19 -6 28.5 -23.5t3.5 -36.5t-23.5 -28.5t-36.5 -3.5q-167 53 -270 191.5 t-103 313.5q0 168 98 306l14 17q11 15 15 20l27 30l1 1q2 1 2 2q74 74 170.5 115.5t203.5 41.5q118 0 223 -50t180 -137q-12 53 -12 110q0 202 135.5 349.5t334.5 165.5q-81 -73 -127 -172.5t-46 -212.5q0 -141 69.5 -260t188.5 -188t260 -69q15 0 47 2q-142 -126 -328 -130 q8 -42 8 -82q0 -41 -7 -75h-2q-23 -125 -117 -211.5t-223 -99.5q-2 -1 -5 -1q-18 0 -32 12.5t-16 30.5q-2 20 11 36t32 18q112 11 186.5 93.5t74.5 194.5q0 120 -85.5 205t-205.5 85q-43 0 -85 -13zM743 518q25 0 42.5 -17.5t17.5 -43.5q0 -25 -17.5 -42t-42.5 -17t-42.5 17 t-17.5 42t17.5 43t42.5 18zM536 377q25 0 43 -17.5t18 -42.5t-18 -43t-43 -18t-43 18t-18 43t18 42.5t43 17.5zM951 377q25 0 42.5 -17.5t17.5 -42.5t-17.5 -43t-42.5 -18t-43 18t-18 43t18 42.5t43 17.5zM743 282q25 0 42.5 -17t17.5 -43q0 -25 -17.5 -42.5t-42.5 -17.5 t-42.5 17.5t-17.5 42.5t17.5 42.5t42.5 17.5zM536 142q25 0 43 -18t18 -43t-18 -42.5t-43 -17.5t-43 17.5t-18 42.5t18 43t43 18zM951 142q25 0 42.5 -18t17.5 -43t-17.5 -42.5t-42.5 -17.5t-43 17.5t-18 42.5t18 43t43 18zM743 49q25 0 42.5 -17.5t17.5 -42.5t-17.5 -43 t-42.5 -18t-42.5 18t-17.5 43t17.5 42.5t42.5 17.5zM536 -91q25 0 43 -18t18 -43t-18 -43t-43 -18t-43 18t-18 43t18 43t43 18zM951 -91q25 0 42.5 -18t17.5 -43t-17.5 -43t-42.5 -18t-43 18t-18 43t18 43t43 18z" />
<glyph unicode="u" horiz-adv-x="1280" d="M640 1754q174 0 321.5 -86t233 -233t85.5 -321q0 -94 -57 -266t-151 -376.5t-173 -363.5t-163 -318q-43 -82 -95.5 -82t-96.5 82q-86 162 -163.5 318.5t-172 363t-151.5 377.5t-57 265q0 130 51 248.5t136.5 204t204 136.5t248.5 51zM887 867q102 104 102 247t-102 247 q-102 102 -247 102q-144 0 -246 -102q-103 -103 -103 -247t103 -247q101 -101 246 -101q146 0 247 101z" />
<glyph unicode="v" horiz-adv-x="1900" d="M950 1663q194 0 370 -75.5t303.5 -202.5t202.5 -303.5t75 -369.5t-75 -369.5t-202.5 -303.5t-303.5 -202.5t-370 -75.5q-193 0 -369 75.5t-303.5 202.5t-202.5 303.5t-75 369.5t75 369.5t202.5 303.5t303.5 202.5t369 75.5z" />
<glyph unicode="w" horiz-adv-x="1904" d="M952 1664q194 0 370 -75.5t303.5 -203t203 -303.5t75.5 -370t-75.5 -370t-203 -303.5t-303.5 -203t-370 -75.5t-370 75.5t-303.5 203t-203 303.5t-75.5 370t75.5 370t203 303.5t303.5 203t370 75.5zM377 323l964 964q-179 119 -389 119q-188 0 -348 -93t-253 -253 t-93 -348q0 -213 119 -389zM1523 1104l-964 -963q179 -123 393 -123q141 0 269.5 55t221.5 148t148 221.5t55 269.5q0 213 -123 392z" />
<glyph unicode="x" horiz-adv-x="860" d="M550 733l216 -110q29 -16 42 -23.5t28 -18.5t19.5 -15.5t4.5 -13.5t-5 -13.5t-19.5 -15t-29 -18.5t-43.5 -23l-216 -113q-29 -15 -197 -105l-244 -129q-24 -13 -40.5 -19.5t-33 -8.5t-24.5 7t-8 30v815q0 21 8 30t24.5 7t33 -8.5t40.5 -19.5l248 -129q146 -80 196 -106z " />
<glyph unicode="y" horiz-adv-x="2766" d="M697 648l2053 555q10 3 14.5 1.5t2.5 -7t-10 -10.5q-1888 -818 -2059 -883q-207 -95 -355 -95q-155 0 -263 95q-82 73 -80 187q2 137 102 314t253 355q-74 -151 -74 -259q0 -131 85 -201t211 -70q68 2 120 18z" />
<glyph unicode="z" horiz-adv-x="1792" d="M1134 1432q0 -91 -64.5 -155t-155.5 -64t-155 64t-64 155t64 155t155 64t155.5 -64t64.5 -155zM603 1213q0 -83 -59 -142.5t-142 -59.5t-142 59.5t-59 142.5t59 142t142 59t142 -59t59 -142zM1518 1213q0 -37 -27 -64.5t-65 -27.5q-37 0 -64 27t-27 65q0 37 26.5 64 t64.5 27t65 -27t27 -64zM366 701q0 -76 -53.5 -129.5t-129.5 -53.5t-129.5 53.5t-53.5 129.5t53.5 129t129.5 53t129.5 -53t53.5 -129zM1755 701q0 -46 -31.5 -78t-77.5 -32t-78 32t-32 78t32 77.5t78 31.5t77.5 -31.5t31.5 -77.5zM567 189q0 -68 -48.5 -116.5t-116.5 -48.5 t-116 48.5t-48 116.5t48 116t116 48t116.5 -48t48.5 -116zM1554 189q0 -53 -37.5 -90.5t-90.5 -37.5t-90.5 37.5t-37.5 90.5t37.5 90.5t90.5 37.5t90.5 -37.5t37.5 -90.5zM1061 -31q0 -61 -43 -103.5t-104 -42.5t-103.5 42.5t-42.5 103.5t42.5 103.5t103.5 42.5t104 -42.5 t43 -103.5z" />
<glyph unicode="{" horiz-adv-x="2001" d="M401 1731h1199q165 0 283 -117t118 -283v-800q0 -166 -118 -283t-283 -117h-799l-400 -400v400q-167 0 -284 117t-117 283v800q0 166 117 283t284 117zM501 733q83 0 141.5 57.5t58.5 140.5q0 84 -58.5 142t-141.5 58q-84 0 -142 -58t-58 -142q0 -83 58 -140.5t142 -57.5 zM1000 733q83 0 141.5 57.5t58.5 140.5q0 84 -58.5 142t-141.5 58q-84 0 -141.5 -58t-57.5 -142q0 -83 57.5 -140.5t141.5 -57.5zM1501 733q83 0 141.5 57.5t58.5 140.5q0 84 -58.5 142t-141.5 58q-84 0 -142 -58t-58 -142q0 -83 58 -140.5t142 -57.5z" />
<glyph unicode="|" horiz-adv-x="2000" d="M1599 897q177 -62 289 -217t112 -349q0 -162 -80.5 -300.5t-218.5 -219t-301 -80.5q-194 0 -349 112.5t-217 289.5q-6 0 -17 -1t-17 -1q-162 0 -310.5 63.5t-255.5 170.5t-170.5 255.5t-63.5 310.5q0 163 63.5 311t170.5 255t255.5 170.5t310.5 63.5t310.5 -63.5 t255.5 -170.5t170.5 -255t63.5 -311q0 -5 -0.5 -17t-0.5 -17zM533 531l125 -250q87 -17 142 -17h3q-3 36 -3 67q0 195 120 359h-253l-134 311l267 198l267 -186l-118 -288q83 97 201 151.5t250 54.5q7 0 20.5 -0.5t18.5 -0.5l-239 134l67 342q-100 100 -250 154l-215 -229 l-218 229q-165 -58 -277 -183l64 -329l-237 -134q7 -208 137 -383h262zM1501 731h-200v-600h200v600zM1501 32h-200v-101h200v101z" />
<glyph unicode="}" horiz-adv-x="2001" d="M1302 1437h299q164 0 282 -117t118 -281v-901q0 -165 -117.5 -282.5t-282.5 -117.5h-1200q-166 0 -283.5 117t-117.5 283v901q0 164 117.5 281t283.5 117h298q0 126 88 213.5t214 87.5q125 0 213 -87.5t88 -213.5zM1001 1539q-42 0 -70.5 -29.5t-28.5 -72.5 q0 -41 28.5 -70t70.5 -29q41 0 69.5 29t28.5 70q0 43 -28.5 72.5t-69.5 29.5zM1801 138v999q0 83 -58.5 142t-141.5 59h-99q82 0 141 -59t59 -142v-98h-1400v98q0 83 58.5 142t141.5 59h-101q-83 0 -141.5 -59t-58.5 -142v-999q0 -83 58.5 -141t141.5 -58h1200 q83 0 141.5 58t58.5 141zM1099 337l309 309q-8 21 -8 41q0 62 45 107t106 45t106 -45.5t45 -106.5q0 -60 -45 -104.5t-106 -44.5q-24 0 -42 7l-207 -208l-101 -98q0 -43 -29.5 -72t-72.5 -29q-41 0 -69.5 29t-28.5 72l-302 299l-397 -400v199l299 302q0 41 28.5 69.5 t69.5 28.5q42 0 72.5 -28.5t30.5 -69.5z" />
<glyph unicode="&#xa1;" horiz-adv-x="1790" d="M951 905l-16 41q-50 124 -160 198t-244 74q-179 0 -306.5 -127.5t-127.5 -307.5q0 -143 84 -257.5t221 -156.5q19 -6 28.5 -24t3.5 -38q-6 -19 -23.5 -27.5t-36.5 -2.5q-167 52 -270.5 191.5t-103.5 314.5q0 132 63 249h-1l2 3q0 1 0.5 2t0.5 2q69 127 194 203.5 t275 76.5q119 0 224 -49.5t179 -136.5q-12 55 -12 110q0 202 136.5 350.5t335.5 166.5q-81 -73 -127 -173t-46 -213q0 -141 69.5 -260.5t189 -189t260.5 -69.5q32 0 48 1q-137 -123 -330 -131q9 -39 9 -80q0 -37 -8 -77h-1q-23 -126 -117.5 -213.5t-224.5 -100.5h-5 q-19 0 -33 12t-15 31q-2 20 11 36t33 18q112 11 186 93.5t74 195.5q0 120 -85 205t-205 85q-50 0 -86 -12zM794 591v-469q0 -20 -14 -34t-34 -14t-34.5 14t-14.5 34v469q0 20 14.5 34.5t34.5 14.5t34 -14.5t14 -34.5zM586 462v-469q0 -20 -14 -34.5t-34 -14.5t-34.5 14.5 t-14.5 34.5v469q0 20 14.5 34t34.5 14t34 -14t14 -34zM1002 462v-469q0 -20 -14 -34.5t-34 -14.5t-34.5 14.5t-14.5 34.5v469q0 20 14.5 34t34.5 14t34 -14t14 -34zM746 -11q25 0 43 -18t18 -43t-18 -43t-43 -18t-42.5 18t-17.5 43q0 26 17.5 43.5t42.5 17.5zM538 -152 q25 0 43 -18.5t18 -43.5t-18 -42.5t-43 -17.5t-43 17.5t-18 42.5q0 26 18 44t43 18zM954 -152q25 0 43 -18.5t18 -43.5t-18 -42.5t-43 -17.5t-42.5 17.5t-17.5 42.5q0 26 17.5 44t42.5 18z" />
<glyph unicode="&#xa2;" horiz-adv-x="1795" d="M1795 1334v-1206l-201 -201v-101q0 -59 -20.5 -79.5t-80.5 -20.5h-603q-58 0 -78.5 26t-20.5 87v86l-303 304v312q-211 42 -349.5 207.5t-138.5 384.5q0 122 48 233.5t128.5 192t192 128.5t234.5 48q198 0 365 -121l123 123h402v-102zM1694 229v1001l-201 201v-648 q0 -22 -14.5 -36t-36.5 -14t-35.5 14t-13.5 36v852h-200v-852q0 -22 -14.5 -36t-36.5 -14q-20 0 -34.5 13t-16.5 33v4v751l-201 -200v-803l-99 -101v300h-101l-100 -200v-202l300 -301h603zM496 643l94 188h201v324l-86 -205h-201l-102 235l201 149l188 -129v229l102 104 q-60 43 -124 68l-164 -172l-165 172q-123 -45 -207 -140l48 -245l-178 -102q5 -161 102 -287h197zM1401 328h-310q-45 0 -72 32.5t-27 69.5q0 35 27 67t72 32h310q43 0 67.5 -31.5t24.5 -67.5q0 -37 -24.5 -69.5t-67.5 -32.5zM1393 -73h-401v-101h401v101z" />
<glyph unicode="&#xa5;" horiz-adv-x="2022" d="M803 1656v-104q203 -41 348.5 -191.5t177.5 -355.5q35 6 87 6q165 0 305 -81t221 -220.5t81 -304.5q0 -176 -92.5 -321.5t-244.5 -220.5q108 -11 172 -28t64 -37q0 -31 -148.5 -53.5t-357.5 -22.5t-357 22.5t-148 53.5q0 20 63.5 37t171.5 28q-116 58 -198.5 158.5 t-116.5 226.5q-97 -21 -162 -21q-181 0 -335 90t-244 244.5t-90 335.5q0 240 152.5 424.5t382.5 231.5v103h268zM1273 1302l-188 188q-13 13 -13 31.5t13 31.5t31 13t31 -13l189 -188q14 -13 14 -31.5t-14 -31.5q-13 -14 -31.5 -14t-31.5 14zM810 429q7 172 100.5 311.5 t243.5 211.5q-20 185 -158 310t-327 125q-133 0 -246 -65.5t-178.5 -178.5t-65.5 -246t65.5 -246t178.5 -179t246 -66q61 0 141 23zM731 1021l62 64q62 62 96 30q31 -31 -33 -94l-125 -125q-64 -64 -96 -33q-32 34 32 95zM1618 103h201q98 130 101 289l-200 114l50 259 q-79 78 -189 116l-164 -172l-86 90l-80 82q-56 -22 -97 -48q-64 -37 -112 -90l27 -130l22 -119l-179 -103q1 -51 17 -110q23 -95 85 -179h200l95 -191q58 -12 107 -12t107 12zM1416 607l202 -176l-100 -209h-203l-101 209z" />
<glyph unicode="&#xac;" horiz-adv-x="2034" d="M610 1750q166 0 306.5 -82t222.5 -222.5t82 -306.5t-82 -306.5t-222.5 -222t-306.5 -81.5t-306.5 81.5t-222 222t-81.5 306.5t81.5 306.5t222 222.5t306.5 82zM407 832l95 -189q48 -11 108 -11t108 11l96 192h201q99 129 102 292l-200 115l49 260q-81 77 -190 116 l-165 -172l-166 172q-127 -45 -212 -139l48 -252l-177 -101q3 -163 102 -291zM713 955l101 245l-204 143l-203 -151l103 -237h203zM1934 429v-204h100v-103h-100v-203h100v-101h-100v-103h-103v103h-204v-103h-100v103h-204v-103h-306v611q0 168 119 287.5t288 119.5h610 v-304h-100zM1527 429h-204v-204h204v204zM1831 429h-204v-204h204v204zM1527 122h-204v-203h204v203zM1831 122h-204v-203h204v203z" />
<glyph unicode="&#xad;" d="M1015 1546v-119q151 -26 283 -103t227 -188.5t150 -256.5t55 -302q0 -176 -68.5 -335.5t-184.5 -275t-276.5 -184t-336.5 -68.5t-336 68.5t-275.5 184t-184 275t-68.5 335.5q0 157 54.5 302t149.5 256.5t227 188.5t282 103v119h-103q-43 0 -71.5 29.5t-28.5 72.5 q0 42 29 71.5t71 29.5h510q42 0 70.5 -29.5t28.5 -71.5q0 -43 -28.5 -72.5t-70.5 -29.5h-105zM1527 1241l-104 102q-17 13 -18 46.5t18 53.5q21 17 53.5 16t50.5 -16l99 -100l104 -102q14 -19 15.5 -49.5t-15.5 -52.5q-20 -19 -54.5 -18t-49.5 18zM864 -80q179 0 331.5 87.5 t242 239t89.5 330.5q0 180 -89.5 333t-242 242t-331.5 89q-135 0 -257.5 -52.5t-211 -141.5t-141 -212t-52.5 -258q0 -179 88.5 -330.5t241 -239t332.5 -87.5zM456 527h408q20 0 35.5 15t15.5 35t-15.5 36t-35.5 16h-408q-21 0 -35.5 -15.5t-14.5 -36.5t14.5 -35.5 t35.5 -14.5z" />
<glyph unicode="&#xb4;" horiz-adv-x="1979" d="M882 1642v-117q249 -50 419 -243.5t187 -451.5q106 -7 202.5 -53.5t166 -120t110.5 -173.5t41 -209q0 -151 -74.5 -278.5t-203 -201.5t-279.5 -74q-169 0 -306.5 92t-203.5 242q-94 -31 -211 -31q-154 0 -294 60.5t-242 162t-162.5 242.5t-60.5 295q0 179 80 337t218 264 t309 141v117h-50q-22 0 -36 14t-14 34q0 22 14.5 37.5t35.5 15.5h405q22 0 36.5 -15.5t14.5 -37.5q0 -20 -14.5 -34t-36.5 -14h-51zM1488 1311l-215 215q-14 14 -35.5 14t-37.5 -14q-14 -16 -14 -37t14 -35l217 -214q13 -16 34 -16t37 16q13 14 13 35.5t-13 35.5zM895 274 q0 186 109.5 332.5t282.5 201.5q-7 145 -83 267t-201.5 192.5t-272.5 70.5q-151 0 -279 -74.5t-202.5 -202.5t-74.5 -278q0 -114 44 -217.5t119 -178t177.5 -118.5t215.5 -44q90 0 166 24q-1 10 -1 25zM871 850l72 72q71 71 36 108q-36 35 -108 -37l-72 -71l-71 -72 q-75 -67 -35 -107q34 -36 106 36zM1691 327h-202v202h-100v-202h-203v-102h203v-202h100v202h202v102z" />
<glyph unicode="&#xb7;" horiz-adv-x="1292" d="M153 1077l-112 112q-36 36 -36 86q0 51 36 87q37 37 87 37t87 -37l106 -106q11 39 44 64t74 25q51 0 86.5 -35.5t35.5 -87.5v-390h-388q-52 1 -88 36.5t-36 86.5q0 46 29.5 80.5t74.5 41.5zM727 837v389q0 52 35.5 88t87.5 36q45 0 79 -29.5t41 -74.5l113 112 q36 36 87 36t87 -36t36 -87t-36 -87l-106 -106q39 -11 64 -44t25 -74q0 -52 -35.5 -87.5t-87.5 -35.5h-390zM1141 427l112 -112q35 -35 35 -86q0 -52 -35 -87q-37 -37 -87 -37q-52 0 -87 37l-106 106q-11 -39 -44 -64t-74 -25q-52 0 -88 35.5t-36 87.5v390h390 q51 0 86.5 -36t35.5 -87q0 -46 -29 -80.5t-73 -41.5zM567 667v-389q-1 -52 -37.5 -88t-86.5 -36q-46 0 -80 30t-41 74l-112 -112q-37 -37 -87 -35q-49 -2 -86 35t-37 87t37 87l106 106q-39 11 -64 44t-25 74q0 52 36 87.5t86 35.5h391z" />
<glyph unicode="&#xbf;" horiz-adv-x="1338" d="M1338 1445v-402q0 -52 -37 -88.5t-90 -36.5q-47 0 -82 30t-41 76l-115 -115q-39 -37 -91 -37t-89 37q-38 40 -38 89q0 52 38 90l110 109q-41 12 -67 45t-26 76q0 53 37 90t90 37h401zM376 661h-1q36 36 89 36q54 0 90 -36q37 -39 37 -90t-37 -90l-109 -110 q40 -11 65.5 -44.5t25.5 -75.5q0 -53 -37 -89.5t-90 -36.5h-401v400q1 53 38 89.5t90 36.5q47 0 82 -30t43 -76z" />
<glyph unicode="&#xc7;" horiz-adv-x="1936" d="M859 -210h799q115 0 196.5 82t81.5 197v1387q0 114 -81.5 195.5t-196.5 81.5h-799q-115 0 -196.5 -81.5t-81.5 -195.5v-1387q0 -115 81.5 -197t196.5 -82zM859 1547h799q38 0 66 -27t28 -64v-1387q0 -38 -28 -65t-66 -27h-799q-38 0 -65 27t-27 65v1387q0 38 27 64.5 t65 26.5zM477 570v-413q0 -45 8 -80l-458 933q-31 67 -27 134t42 126t101 90l342 179q-3 -12 -3 -75t2 -120l1 -57l-245 -119q-17 -8 -23.5 -26.5t1.5 -35.5z" />
<glyph unicode="&#xe7;" horiz-adv-x="1769" d="M23 1023l586 -1166q28 -59 81.5 -92.5t118.5 -33.5q50 0 101 24l735 365q83 42 112.5 129t-11.5 170l-623 1155q-28 58 -80.5 90.5t-117.5 32.5q-54 0 -100 -26l-699 -346q-83 -43 -113 -131t10 -171zM207 1155l703 352q5 5 15 5q24 0 34 -22l622 -1153q6 -13 1.5 -28.5 t-17.5 -22.5l-740 -365q-33 -16 -49 16l-585 1170q-6 14 -1 27.5t17 20.5z" />
<glyph unicode="&#xf7;" horiz-adv-x="2022" d="M1922 1035v-202h101v-102h-101v-202h101v-100h-101v-203h101v-101h-101v-203h101v-100h-101v-102h-101v102h-203v-102h-100v102h-203v-102h-101v102h-203v-102h-100v102h-202v-102h-304v845q-180 62 -292.5 218.5t-112.5 352.5q0 164 81.5 304t221.5 221.5t304 81.5 q196 0 352 -113.5t219 -291.5h845v-303h-101zM405 832l94 -190q47 -11 108 -11q54 0 102 9q3 0 5 2l45 89l50 102h201q1 2 1 4q68 88 90 197q11 50 11 88l-201 116l19 100l31 158q-80 77 -190 117l-163 -173l-166 173q-120 -43 -209 -140l49 -249l-180 -102q4 -161 103 -290 h200zM809 1197l-100 -244h-203l-64 148l-37 88l202 149zM1214 1035h-9q-21 -117 -74 -202h83v202zM1518 1035h-203v-202h203v202zM1821 1035h-203v-202h203v202zM1214 731h-155l-48 -48v-154h203v202zM1518 731h-203v-202h203v202zM1821 731h-203v-202h203v202zM911 529v81 q-89 -51 -202 -73q-43 -8 -102 -8h304zM911 429h-202v-203h202v203zM1214 429h-203v-203h203v203zM1518 429h-203v-203h203v203zM1821 429h-203v-203h203v203zM911 125h-202v-203h202v203zM1214 125h-203v-203h203v203zM1518 125h-203v-203h203v203zM1821 125h-203v-203h203 v203z" />
<glyph unicode="&#x2000;" horiz-adv-x="948" />
<glyph unicode="&#x2001;" horiz-adv-x="1897" />
<glyph unicode="&#x2002;" horiz-adv-x="948" />
<glyph unicode="&#x2003;" horiz-adv-x="1897" />
<glyph unicode="&#x2004;" horiz-adv-x="632" />
<glyph unicode="&#x2005;" horiz-adv-x="474" />
<glyph unicode="&#x2006;" horiz-adv-x="316" />
<glyph unicode="&#x2007;" horiz-adv-x="316" />
<glyph unicode="&#x2008;" horiz-adv-x="237" />
<glyph unicode="&#x2009;" horiz-adv-x="379" />
<glyph unicode="&#x200a;" horiz-adv-x="105" />
<glyph unicode="&#x2010;" d="M1015 1546v-119q151 -26 283 -103t227 -188.5t150 -256.5t55 -302q0 -176 -68.5 -335.5t-184.5 -275t-276.5 -184t-336.5 -68.5t-336 68.5t-275.5 184t-184 275t-68.5 335.5q0 157 54.5 302t149.5 256.5t227 188.5t282 103v119h-103q-43 0 -71.5 29.5t-28.5 72.5 q0 42 29 71.5t71 29.5h510q42 0 70.5 -29.5t28.5 -71.5q0 -43 -28.5 -72.5t-70.5 -29.5h-105zM1527 1241l-104 102q-17 13 -18 46.5t18 53.5q21 17 53.5 16t50.5 -16l99 -100l104 -102q14 -19 15.5 -49.5t-15.5 -52.5q-20 -19 -54.5 -18t-49.5 18zM864 -80q179 0 331.5 87.5 t242 239t89.5 330.5q0 180 -89.5 333t-242 242t-331.5 89q-135 0 -257.5 -52.5t-211 -141.5t-141 -212t-52.5 -258q0 -179 88.5 -330.5t241 -239t332.5 -87.5zM456 527h408q20 0 35.5 15t15.5 35t-15.5 36t-35.5 16h-408q-21 0 -35.5 -15.5t-14.5 -36.5t14.5 -35.5 t35.5 -14.5z" />
<glyph unicode="&#x2011;" d="M1015 1546v-119q151 -26 283 -103t227 -188.5t150 -256.5t55 -302q0 -176 -68.5 -335.5t-184.5 -275t-276.5 -184t-336.5 -68.5t-336 68.5t-275.5 184t-184 275t-68.5 335.5q0 157 54.5 302t149.5 256.5t227 188.5t282 103v119h-103q-43 0 -71.5 29.5t-28.5 72.5 q0 42 29 71.5t71 29.5h510q42 0 70.5 -29.5t28.5 -71.5q0 -43 -28.5 -72.5t-70.5 -29.5h-105zM1527 1241l-104 102q-17 13 -18 46.5t18 53.5q21 17 53.5 16t50.5 -16l99 -100l104 -102q14 -19 15.5 -49.5t-15.5 -52.5q-20 -19 -54.5 -18t-49.5 18zM864 -80q179 0 331.5 87.5 t242 239t89.5 330.5q0 180 -89.5 333t-242 242t-331.5 89q-135 0 -257.5 -52.5t-211 -141.5t-141 -212t-52.5 -258q0 -179 88.5 -330.5t241 -239t332.5 -87.5zM456 527h408q20 0 35.5 15t15.5 35t-15.5 36t-35.5 16h-408q-21 0 -35.5 -15.5t-14.5 -36.5t14.5 -35.5 t35.5 -14.5z" />
<glyph unicode="&#x2012;" d="M1015 1546v-119q151 -26 283 -103t227 -188.5t150 -256.5t55 -302q0 -176 -68.5 -335.5t-184.5 -275t-276.5 -184t-336.5 -68.5t-336 68.5t-275.5 184t-184 275t-68.5 335.5q0 157 54.5 302t149.5 256.5t227 188.5t282 103v119h-103q-43 0 -71.5 29.5t-28.5 72.5 q0 42 29 71.5t71 29.5h510q42 0 70.5 -29.5t28.5 -71.5q0 -43 -28.5 -72.5t-70.5 -29.5h-105zM1527 1241l-104 102q-17 13 -18 46.5t18 53.5q21 17 53.5 16t50.5 -16l99 -100l104 -102q14 -19 15.5 -49.5t-15.5 -52.5q-20 -19 -54.5 -18t-49.5 18zM864 -80q179 0 331.5 87.5 t242 239t89.5 330.5q0 180 -89.5 333t-242 242t-331.5 89q-135 0 -257.5 -52.5t-211 -141.5t-141 -212t-52.5 -258q0 -179 88.5 -330.5t241 -239t332.5 -87.5zM456 527h408q20 0 35.5 15t15.5 35t-15.5 36t-35.5 16h-408q-21 0 -35.5 -15.5t-14.5 -36.5t14.5 -35.5 t35.5 -14.5z" />
<glyph unicode="&#x2013;" horiz-adv-x="1024" d="M595 1546v-119q89 -26 166.5 -103t133 -188.5t88 -256.5t32.5 -302q0 -176 -40.5 -335.5t-108.5 -275t-162 -184t-197 -68.5t-197 68.5t-162 184t-108 275t-40 335.5q0 157 32 302t87.5 256.5t133 188.5t165.5 103v119h-60q-25 0 -42 29.5t-17 72.5q0 42 17 71.5t42 29.5 h299q25 0 41.5 -29.5t16.5 -71.5q0 -43 -16.5 -72.5t-41.5 -29.5h-62zM896 1241l-61 102q-10 13 -10.5 46.5t10.5 53.5q12 17 31 16t30 -16l58 -100l61 -102q8 -19 9 -49.5t-9 -52.5q-12 -19 -32 -18t-29 18zM507 -80q105 0 194.5 87.5t142 239t52.5 330.5q0 180 -52.5 333 t-142 242t-194.5 89q-79 0 -151 -52.5t-124 -141.5t-83 -212t-31 -258q0 -179 52 -330.5t141.5 -239t195.5 -87.5zM267 527h240q12 0 21 15t9 35t-9 36t-21 16h-240q-12 0 -20.5 -15.5t-8.5 -36.5t8.5 -35.5t20.5 -14.5z" />
<glyph unicode="&#x2014;" horiz-adv-x="2048" d="M1191 1546v-119q177 -26 332 -103t266.5 -188.5t176 -256.5t64.5 -302q0 -176 -80.5 -335.5t-216.5 -275t-324.5 -184t-395 -68.5t-394 68.5t-323 184t-216 275t-80.5 335.5q0 157 64 302t175.5 256.5t266.5 188.5t331 103v119h-121q-51 0 -84.5 29.5t-33.5 72.5 q0 42 34 71.5t84 29.5h598q49 0 82.5 -29.5t33.5 -71.5q0 -43 -33.5 -72.5t-82.5 -29.5h-123zM1792 1241l-123 102q-19 13 -20.5 46.5t20.5 53.5q25 17 63 16t60 -16l116 -100l122 -102q16 -19 18 -49.5t-18 -52.5q-24 -19 -64.5 -18t-57.5 18zM1014 -80q210 0 389 87.5 t284 239t105 330.5q0 180 -105 333t-284 242t-389 89q-159 0 -302.5 -52.5t-247.5 -141.5t-165.5 -212t-61.5 -258q0 -179 104 -330.5t282.5 -239t390.5 -87.5zM535 527h479q23 0 41 15t18 35t-18 36t-41 16h-479q-25 0 -42 -15.5t-17 -36.5t17 -35.5t42 -14.5z" />
<glyph unicode="&#x201c;" horiz-adv-x="1965" d="M1473 632h66q123 0 228 -61.5t166 -166.5t61 -228q0 -124 -61 -229t-165.5 -166t-228.5 -61h-606q-156 0 -278 97t-161 245q-231 77 -377 274.5t-146 446.5q0 179 79.5 337t217.5 264.5t310 141.5v117h-50q-22 0 -35.5 14t-13.5 36q0 20 14 35t35 15h405q19 0 34.5 -15.5 t15.5 -34.5q0 -21 -15 -35.5t-35 -14.5h-50v-117q171 -35 309 -141t218 -264.5t80 -337.5q0 -62 -17 -151zM1485 1311l-214 215q-13 14 -34 14t-37 -14q-14 -16 -14 -36.5t14 -34.5l215 -214q16 -17 36.5 -17t33.5 17q17 13 17 34.5t-17 35.5zM933 632h332q23 83 23 151 q0 150 -75 278t-203.5 202.5t-279.5 74.5t-279 -74.5t-202.5 -202.5t-74.5 -278q0 -165 87 -300t230 -202q37 152 159.5 251.5t282.5 99.5zM871 851l72 72q14 12 26 28t20 39.5t-11 38.5q-12 13 -27.5 14t-33.5 -11t-25 -18t-21 -19l-72 -72l-71 -72q-44 -46 -48 -73 q-3 -19 11 -35q40 -38 108 38zM1086 430h-224l-81 -103h202v-405h103v508zM1792 227h-202v203h-100v-203h-202v-102h202v-203h100v203h202v102z" />
<glyph unicode="&#x201d;" horiz-adv-x="1885" d="M1499 629h-66q17 94 17 153q0 180 -80 338t-218 264.5t-309 141.5v114h50q20 0 35 15.5t15 37.5q0 20 -15 35t-35 15h-405q-21 0 -35 -14.5t-14 -35.5q0 -22 14 -37.5t35 -15.5h50v-114q-262 -54 -434.5 -263t-172.5 -481q0 -248 146.5 -446.5t376.5 -273.5 q38 -148 160.5 -245t278.5 -97h606q188 0 321.5 133.5t133.5 321.5q0 123 -61 227.5t-166 165.5t-228 61zM1231 1526l214 -215q17 -14 17 -35.5t-17 -34.5q-13 -17 -34.5 -17t-35.5 17l-215 214q-14 14 -14 35.5t14 35.5t35.5 14t35.5 -14zM1225 629h-332 q-161 0 -283.5 -98.5t-158.5 -250.5q-144 68 -230.5 203t-86.5 299q0 113 44 216t118.5 177.5t177.5 118.5t216 44t216 -44t178 -118.5t119.5 -177.5t44.5 -216q0 -65 -23 -153zM759 923l71 70q73 73 108 36q36 -35 -35 -106l-144 -144q-71 -71 -108 -36q-34 36 37 107z M1248 125h-405v-103h405v-100h-507v302h404v103h-404v99h507v-301zM1653 -78h-103v203h-203v99h203v202h103v-202h202v-99h-202v-203z" />
<glyph unicode="&#x2022;" horiz-adv-x="1915" d="M1635 1393q138 -138 209.5 -317t71.5 -360t-71.5 -360t-209.5 -316q-184 -184 -430.5 -249.5t-493 0t-430.5 249.5q-138 138 -210 316.5t-72 360t72 360t210 316.5t317 209.5t360 71.5t360 -71.5t317 -209.5zM1049 499v103q44 15 76.5 29t78 44.5t74.5 66.5t50.5 94 t21.5 129q0 170 -108.5 274t-286.5 104q-38 0 -98.5 -10t-124 -26.5t-108.5 -45t-45 -60.5l6 -31l47 -121q4 -18 18.5 -30.5t31.5 -12.5q12 0 47 15q109 45 185 45q35 0 60 -8.5t37 -19t18.5 -27t7.5 -25t1 -20.5q0 -54 -27.5 -82.5t-83.5 -49.5q-7 -2 -20 -5.5t-20 -6.5 q-26 -7 -41 -12.5t-34.5 -16.5t-28.5 -26.5t-9 -36.5v-231q0 -38 16.5 -54t54.5 -16h134q38 0 54 16t16 54zM918 -54q76 0 131.5 55.5t55.5 132.5q0 78 -54.5 133t-132.5 55q-79 0 -134 -54.5t-55 -133.5q0 -78 55.5 -133t133.5 -55z" />
<glyph unicode="&#x2026;" horiz-adv-x="677" d="M166 1189l483 -474q29 -27 29 -66q0 -38 -29 -67l-483 -472q-28 -28 -69 -28q-40 0 -68 28q-29 28 -29 66.5t29 66.5l414 406l-414 406q-29 28 -29 66.5t29 67.5q28 26 68.5 26t68.5 -26z" />
<glyph unicode="&#x202f;" horiz-adv-x="379" />
<glyph unicode="&#x205f;" horiz-adv-x="474" />
<glyph unicode="&#x20ac;" horiz-adv-x="1708" d="M1085 1537l601 -1113q40 -80 11.5 -164.5t-108.5 -125.5l-714 -351q-42 -23 -96 -23q-62 0 -113.5 32t-79.5 88l-563 1126q-40 80 -11.5 165t108.5 125l675 338q48 23 96 23q62 0 115 -32.5t79 -87.5z" />
<glyph unicode="&#xe000;" horiz-adv-x="994" d="M0 994h994v-994h-994v994z" />
</font>
</defs>
</svg>
